<?xml version="1.0" encoding="utf-8"?>
<!-- Generator: Adobe Illustrator 27.5.0, SVG Export Plug-In . SVG Version: 6.00 Build 0)  -->
<svg version="1.1" id="Layer_1" xmlns="http://www.w3.org/2000/svg" xmlns:xlink="http://www.w3.org/1999/xlink" x="0px" y="0px"
	 viewBox="0 0 4000 4000" style="enable-background:new 0 0 4000 4000;" xml:space="preserve">
<g>
	<g>
		<rect style="fill:#CCEEFF;" width="4000" height="4000"/>
	</g>
	<g style="opacity:0.2;">
		<ellipse style="fill:#371A45;" cx="1990" cy="3399.583" rx="917.5" ry="109.582"/>
	</g>
	<g>
		<g>
			<g>
				<path style="fill:#8E99A0;" d="M2053,1410.623c-206.197,91.546-350.105,278.946-480.98,486.379
					c-184.12,221.115-453.124,313.644-801.28,242.748c-72.178-14.688-132.984-64.704-158.658-133.759
					c-16.354-43.957-18.165-92.94,1.917-137.834c-18.233-101.893,41.548-189.278,154.63-266.788
					c139.516-114.746,236.011-262.225,288.864-442.909c17.305-189.171,89.662-331.888,280.236-374.734
					c53.915-29.9,98.287-65.272,134.681-105.206c98.875-112.607,255.657-152.41,362.447-47.399
					c98.522,102.919,183.012,222.889,249.651,364.442c5.187,10.942,10.24,21.992,15.181,33.213
					C2213.82,1160.987,2216.719,1305.962,2053,1410.623z"/>
				<path style="fill:#371A45;" d="M990.903,2165.506c-70.249,0-143.906-7.803-220.635-23.428
					c-73.486-14.956-134.951-66.782-160.41-135.254c-17.622-47.358-17.021-96.675,1.675-138.97
					c-17.056-97.109,33.901-184.922,155.752-268.443c138.652-114.048,235.581-262.671,287.93-441.621
					c19.873-217.72,109.414-337.451,281.66-376.304c51.709-28.716,96.714-63.896,133.779-104.57
					c58.481-66.606,134.922-106.396,209.692-109.136c58.975-2.232,112.969,19.155,156.177,61.646
					c102.183,106.743,186.318,229.57,250.132,365.127c5.156,10.879,10.225,21.963,15.063,32.94
					c62.188,72.143,89.795,146.265,79.854,214.375c-9.546,65.415-52.373,122.866-127.295,170.757l-0.317,0.171
					c-211.978,94.116-355.938,288.95-479.927,485.478c-93.657,112.5-208.13,190.43-340.43,231.875
					C1158.383,2153.714,1077.226,2165.506,990.903,2165.506z M1688.457,572.381c-2.637,0-5.278,0.049-7.939,0.146
					c-73.467,2.695-148.667,41.899-206.318,107.558c-37.515,41.167-83.032,76.724-135.318,105.723l-0.63,0.239
					c-170.176,38.257-258.633,156.66-278.389,372.627c-52.71,180.332-150.156,329.741-289.727,444.531
					c-120.61,82.681-170.864,169.17-153.799,264.531l0.127,0.723l-0.298,0.669c-18.472,41.294-19.131,89.605-1.855,136.035
					c24.893,66.948,85.015,117.627,156.904,132.256c334.248,68.062,610.513-15.601,798.98-241.934
					c124.18-196.86,268.618-392.305,481.675-486.963c73.613-47.095,115.669-103.398,125-167.344
					c9.751-66.787-17.563-139.697-78.979-210.85l-0.376-0.596c-4.863-11.045-9.966-22.197-15.156-33.154
					c-63.594-135.093-147.441-257.5-249.214-363.818C1792.885,593.177,1742.983,572.381,1688.457,572.381z"/>
			</g>
			<g style="opacity:0.6;">
				<path style="fill:#FFFFFF;" d="M1812.459,611.755c-101.88-55.975-229.277-12.958-314.094,83.627
					c-36.393,39.933-80.766,75.306-134.681,105.206c-190.573,42.846-262.931,185.564-280.236,374.734
					c-52.853,180.683-149.347,328.162-288.864,442.909c-113.082,77.51-172.863,164.896-154.63,266.788
					c-20.082,44.894-18.27,93.876-1.916,137.834c14.097,37.911,38.789,70.075,70.149,93.824
					c-43.667-24.122-78.311-62.833-96.104-110.686c-16.354-43.957-18.165-92.94,1.917-137.834
					c-18.233-101.893,41.548-189.278,154.63-266.788c139.516-114.746,236.011-262.225,288.864-442.909
					c17.305-189.171,89.662-331.888,280.236-374.734c53.915-29.9,98.287-65.272,134.681-105.206
					C1564.569,573.54,1707.086,531.843,1812.459,611.755z"/>
			</g>
			<g style="opacity:0.6;">
				<path style="fill:#FFFFFF;" d="M1174.61,1540.585c193.415,0.863,275.214-207.74,266.831-416.034
					c6.542-80.58,29.397-155.038,105.367-192.559c96.523-27.129,167.294-81.633,199.963-164.873
					c17.399-25.623,18.806-113.266-49.459-97.258c59.988,26.188,19.986,140.115-57.187,183.708c0,0-54.462,35.264-119.958,61.711
					c-65.496,26.447-95.904,118.383-95.904,118.383s-19.392,98.453-28.41,180.859
					C1386.835,1296.928,1393.503,1427.979,1174.61,1540.585z"/>
			</g>
			<g>
				<g>
					<path style="fill:#F46800;" d="M1119.469,2048.788c3.745-159.678,221.771-236.021,373.126-438.626
						c-84.077,123.886-150.669,243.749-176.44,354.223C1259.509,2011.051,1193.321,2037.885,1119.469,2048.788z"/>
				</g>
				<g>
					<path style="fill:#371A45;" d="M1117.026,2051.551l0.068-2.817c2.236-95.532,78.169-159.751,174.297-241.05
						c64.521-54.565,137.646-116.411,199.302-198.94l3.872,2.754c-97.358,143.447-153.31,255.752-176.094,353.428l-0.186,0.781
						l-0.62,0.513c-54.663,45.034-121.231,73.608-197.852,84.917L1117.026,2051.551z M1461.484,1652.756
						c-54.033,62.993-113.486,113.276-167.026,158.555c-94.253,79.712-168.896,142.847-172.524,234.702
						c74.277-11.416,138.892-39.321,192.095-82.954C1334.658,1875.213,1381.85,1775.72,1461.484,1652.756z"/>
				</g>
			</g>
			<g style="opacity:0.6;">
				<path style="fill:#FFFFFF;" d="M1492.607,1610.166c-29.046,42.821-56.035,85.156-79.968,126.787
					c-125.553,120.118-256.253,193.084-272.307,308.256c-6.871,1.348-13.821,2.553-20.859,3.585
					C1123.217,1889.116,1341.242,1812.762,1492.607,1610.166z"/>
			</g>
			<g>
				<g>
					<path style="fill:#F46800;" d="M1657.488,1528.624c3.028-246.766,445.397-432.418,319.52-721.907l116.482,202.598
						c25.743,136.124-53.959,226.176-197.485,288.341C1794.558,1335.684,1716.604,1415.427,1657.488,1528.624z"/>
				</g>
				<g>
					<path style="fill:#371A45;" d="M1654.99,1538.543l0.122-9.946c1.309-106.46,81.719-199.331,166.851-297.651
						c110.264-127.353,224.282-259.038,152.866-423.281l4.238-2.134l116.684,202.949l0.073,0.396
						c24.092,127.388-40.962,222.564-198.877,290.967c-96.816,36.294-176.636,113.623-237.353,229.883L1654.99,1538.543z
						 M1989.633,833.44c49.331,154.15-59.063,279.326-164.077,400.615c-81.772,94.438-159.155,183.813-165.313,284.321
						c60.654-112.241,139.658-187.232,234.927-222.944c155.298-67.266,219.468-160.601,196.059-285.283L1989.633,833.44z"/>
				</g>
			</g>
			<g style="opacity:0.6;">
				<path style="fill:#FFFFFF;" d="M2018.059,878.093c45.953,208.772-195.268,364.462-294.848,537.198
					c-6.743,11.654-12.81,23.428-18.122,35.263c-17.086,23.883-32.919,49.913-47.611,78.058c0.099-9.274,0.832-18.447,2.159-27.542
					l49.415-117.776c-0.358-1.125-0.686-2.26-1.003-3.365c5.047-8.034,10.366-16.054,15.926-24.05
					c119.159-171.193,348.088-330.576,253.041-549.154L2018.059,878.093z"/>
			</g>
			<g>
				<path style="fill:#371A45;" d="M1315.62,1970.325c13.058-181.029,253.142-352.16,262.354-659.47l260.85-470.594l18.078-185.563
					c0,0,116.198,131.707,130.838,180.63c38.001,160.694-67.004,323.738-235.36,487.823c0,0-107.146,108.852-87.766,190.869
					l-74.032,170.876C1528.19,1807.83,1434.235,1900.787,1315.62,1970.325z"/>
				<path style="fill:#82898E;" d="M1312.924,1974.661l0.327-4.507c5.591-77.549,51.621-151.826,104.922-237.832
					c71.318-115.078,152.149-245.518,157.427-421.538l0.015-0.576l0.278-0.503l260.61-470.166l18.564-190.508l3.618,4.097
					c4.756,5.395,116.709,132.656,131.328,181.523c34.136,144.311-40.859,300.034-235.972,490.2
					c-1.03,1.045-105.972,108.833-87.114,188.623l0.181,0.767l-0.317,0.723l-74.033,170.874
					c-59.829,117.9-152.646,214.258-275.938,286.538L1312.924,1974.661z M1580.332,1311.506
					c-5.474,176.997-86.567,307.857-158.12,423.32c-51.919,83.774-96.895,156.348-103.848,231.118
					c120.532-71.543,211.387-166.44,270.098-282.124l73.662-170.024c-18.638-82.241,84.165-187.842,88.564-192.31
					c193.833-188.921,268.413-343.218,234.736-485.61c-12.842-42.915-106.963-152.759-126.69-175.469l-17.593,180.576l-0.239,0.43
					L1580.332,1311.506z"/>
			</g>
			<g style="opacity:0.6;">
				<path style="fill:#FFFFFF;" d="M1875.833,676.692l-17.975,184.428l-260.839,470.598
					c-8.594,287.026-218.602,455.26-256.873,623.672c-8.054,5.106-16.217,10.078-24.519,14.928
					c13.063-181.025,253.126-352.151,262.335-659.464l260.869-470.608l18.052-185.557
					C1856.883,654.69,1864.374,663.191,1875.833,676.692z"/>
			</g>
			<g>
				<path style="fill:#00B9F2;" d="M1706.732,1382.077c-93.331-303.171,281.777-489.906,136.868-738.273
					c26.518,151.396-63.91,289.608-183.981,424.478c-159.929,200.51-23.467,488.269-107.942,683.282"/>
				<path style="fill:#371A45;" d="M1553.862,1752.507l-4.365-1.885c35.757-82.539,31.738-180.698,27.48-284.619
					c-5.703-139.316-11.597-283.374,80.786-399.199c106.445-119.575,211.416-263.198,183.496-422.593l-2.29-13.057l6.68,11.45
					c74.551,127.773,12.686,239.468-52.818,357.715c-63.559,114.746-129.282,233.398-83.828,381.06l-4.541,1.396
					c-46.05-149.595,20.171-269.146,84.214-384.761c62.822-113.408,122.271-220.718,59.287-341.406
					c20.449,156.074-82.388,296.231-186.572,413.257c-91.191,114.341-85.332,257.495-79.663,395.943
					C1586.005,1570.291,1590.043,1668.972,1553.862,1752.507z"/>
			</g>
			<g style="opacity:0.6;">
				<path style="fill:#FFFFFF;" d="M1723.976,1355.879c-5.561,7.996-10.879,16.016-15.926,24.05
					c-80.765-271.707,213.874-449.906,166.348-663.837c0.589-20.58-0.838-41.39-4.521-62.453
					C2008.954,892.005,1669.023,1073.621,1723.976,1355.879z"/>
			</g>
			<g>
				<path style="fill:#F2E7ED;" d="M2053,1410.623c-206.197,91.546-350.105,278.946-480.98,486.379
					c-184.12,221.115-453.124,313.644-801.28,242.748c-63.654-12.946-118.468-53.38-148.137-110.148
					c-3.982-7.574-7.495-15.464-10.521-23.611c-16.354-43.957-18.165-92.94,1.917-137.834
					c52.064-97.857,245.976,1.654,327.723,135.959c15.55,25.528,41.324,43.083,70.882,47.582
					c192.195,29.236,468.637-152.588,563.682-343.17c76.187-197.445,169.139-367.439,336.056-416.124
					c132.145-73.057,223.923-160.068,172.165-296.842c5.187,10.942,10.24,21.992,15.181,33.213
					c5.085,5.884,9.949,11.805,14.589,17.763l0.029,0.091C2213.741,1173.904,2209.367,1310.644,2053,1410.623z"/>
				<path style="fill:#371A45;" d="M990.903,2165.506c-70.249,0-143.906-7.803-220.635-23.428
					c-65.102-13.237-119.692-53.833-149.771-111.377c-4.014-7.632-7.593-15.669-10.64-23.882
					c-17.715-47.602-17.012-97.192,1.973-139.634c13.692-25.742,37.954-39.766,70.234-40.703
					c82.319-2.383,202.036,78.408,261.689,176.401c15.332,25.171,40.557,42.104,69.204,46.465
					c183.198,27.891,461.25-141.465,561.206-341.88c68.477-177.5,162.178-366.045,337.261-417.271
					c115.366-63.813,225.791-148.633,170.859-293.794l4.37-1.855c5.156,10.884,10.225,21.968,15.063,32.944
					c5.034,5.83,9.888,11.743,14.434,17.588l0.279,0.41c52.993,67.959,75.263,137.427,64.409,200.913
					c-10.864,63.545-53.447,119.473-126.563,166.221l-0.317,0.171c-211.978,94.116-355.938,288.95-479.927,485.478
					c-93.657,112.5-208.13,190.43-340.43,231.875C1158.383,2153.714,1077.226,2165.506,990.903,2165.506z M685.688,1831.184
					c-1.172,0-2.329,0.015-3.486,0.049c-30.908,0.894-53.149,13.691-66.103,38.042c-18.403,41.147-19.063,89.458-1.787,135.889
					c2.979,8.022,6.475,15.874,10.396,23.335c29.414,56.27,82.813,95.972,146.509,108.921
					c334.248,68.062,610.513-15.601,798.98-241.934c124.18-196.86,268.618-392.305,481.675-486.963
					c71.851-45.976,113.662-100.791,124.287-162.92c10.64-62.231-11.392-130.532-63.721-197.51l-0.283-0.415
					c-4.497-5.767-9.292-11.601-14.263-17.349l-0.376-0.596c-0.215-0.479-0.425-0.957-0.635-1.44
					c11.401,51.191,2.285,97.563-27.534,140.933c-29.59,43.027-79.111,82.832-155.854,125.259l-0.483,0.2
					c-173.257,50.537-266.318,237.993-334.502,414.697c-45.947,92.149-138.013,187.466-246.372,255.176
					c-112.988,70.61-229.58,103.232-319.888,89.487c-30.039-4.57-56.484-22.319-72.554-48.691
					C881.669,1910.027,766.269,1831.184,685.688,1831.184z"/>
			</g>
			<g>
				<path style="fill:#371A45;" d="M990.908,2175.896c-70.938,0-145.303-7.876-222.71-23.633
					c-76.963-15.669-141.372-70.01-168.086-141.812c-18.159-48.818-17.896-99.751,0.654-143.901
					c-16.201-100.19,36.231-190.313,160.171-275.396c136.641-112.485,232.168-258.848,283.955-435.078
					c9.673-104.194,34.927-185.015,77.188-247.041c47.695-69.99,118.682-116.191,211.03-137.344
					c50.186-28.052,93.877-62.29,129.878-101.782c60.22-68.599,139.365-109.673,216.978-112.52
					c61.894-2.266,118.55,20.078,163.848,64.624c110.967,115.947,200.63,250.376,266.797,399.858
					c63.496,74.146,91.582,150.708,81.24,221.519c-10.01,68.52-54.414,128.403-131.973,177.974c-0.542,0.347-1.108,0.65-1.694,0.908
					c-209.478,93.018-352.27,286.416-475.376,481.558c-0.298,0.474-0.63,0.928-0.986,1.357
					c-94.761,113.809-210.874,192.832-345.112,234.878C1160.473,2163.948,1078.296,2175.896,990.908,2175.896z M1688.432,582.766
					c-2.5,0-5.01,0.044-7.529,0.137c-70.63,2.588-143.125,40.508-198.887,104.028c-38.413,42.139-84.824,78.403-138.106,107.964
					c-1.064,0.591-2.202,1.025-3.389,1.289c-165.142,37.134-251.035,152.627-270.322,363.457c-0.073,0.82-0.229,1.631-0.459,2.422
					c-53.228,181.948-151.816,333.066-293.018,449.16c-0.283,0.239-0.581,0.459-0.889,0.669
					c-116.704,79.99-165.537,163.076-149.287,254.009c0.454,2.52,0.137,5.117-0.908,7.451c-17.344,38.823-17.91,84.35-1.602,128.193
					c23.667,63.613,80.859,111.777,149.253,125.698c334.683,68.145,599.912-11.875,788.374-237.749
					c124.981-198.022,270.322-394.341,485.269-490.156c70.537-45.298,110.796-99.004,119.653-159.639
					c9.312-63.721-17.163-133.779-76.553-202.598c-0.825-0.957-1.504-2.031-2.017-3.188
					c-65.034-147.451-153.311-280.005-262.378-393.975C1787.583,602.527,1740.2,582.766,1688.432,582.766z M2053.002,1410.608h0.049
					H2053.002z"/>
			</g>
			<g>
				<path style="fill:#371A45;" d="M1056.176,2067.664c-15.469,0-30.659-1.084-45.493-3.345
					c-33.096-5.029-62.207-24.556-79.868-53.569c-55.41-91.035-169.067-169.185-245.186-169.185c-1.05,0-2.085,0.015-3.12,0.049
					c-26.914,0.771-46.182,11.719-57.256,32.529c-3.315,6.226-11.055,8.574-17.266,5.273c-6.226-3.315-8.584-11.045-5.274-17.266
					c15.483-29.087,42.822-45.015,79.058-46.06c85.493-2.31,209.512,80.605,270.85,181.387
					c13.725,22.544,36.289,37.71,61.899,41.607c86.758,13.169,199.609-18.643,309.58-87.363
					c105.884-66.167,195.732-158.97,240.479-248.364c69.355-179.531,164.346-369.902,342.817-422.793
					c79.629-44.17,129.189-85.469,155.918-129.922c31.973-53.169,30.723-112.085-3.823-180.112
					c-3.193-6.289-0.684-13.97,5.601-17.163c6.299-3.184,13.97-0.684,17.163,5.601c89.287,175.835-40.596,276.533-163.731,344.619
					c-0.825,0.454-1.699,0.82-2.603,1.084c-168.867,49.253-260.439,234.111-327.744,408.452c-0.146,0.371-0.308,0.737-0.488,1.099
					C1502.348,1885.369,1256.718,2067.659,1056.176,2067.664z M1912.348,1292.415h0.049H1912.348z"/>
			</g>
			<g>
				<path style="fill:#00B9F2;" d="M1129.809,1077.944c10.471-55.827,34.754-114.985,58.085-151.94
					c10.414-16.495,26.867-28.369,45.917-32.565c78.163-17.218,213.164,0.296,229.724,67.785c0,0-62.429,92.459-68.451,275.465
					c-6.023,183.006-149.436,297.547-279.667,319.552c-104.537,14.74-163.44-14.457-148.951-114.313
					C1039.563,1338.08,1095.254,1217.919,1129.809,1077.944z"/>
			</g>
			<g style="opacity:0.6;">
				<path style="fill:#FFFFFF;" d="M1463.543,961.213c0,0-4.874,7.209-12.057,21.581c-21.99-63.161-152.006-79.35-228.143-62.576
					c-19.062,4.186-35.506,16.078-45.908,32.545c-9.648,15.256-19.451,34.346-28.363,55.396
					c11.298-31.553,25.226-60.627,38.806-82.156c10.433-16.477,26.877-28.369,45.939-32.555
					C1311.989,876.227,1446.982,893.747,1463.543,961.213z"/>
			</g>
			<g>
				<path style="fill:#371A45;" d="M1074.428,1572.503c-41.504,0-77.485-10.723-100.772-32.075
					c-26.909-24.668-33.745-61.142-19.243-102.705c2.319-6.655,9.604-10.181,16.255-7.847c6.655,2.319,10.171,9.6,7.847,16.255
					c-11.245,32.236-7.075,57.632,12.393,75.483c37.495,34.38,121.621,33.765,200.024-1.475
					c122.583-55.083,194.404-173.457,192.124-316.65c-0.005-0.322,0.005-0.64,0.02-0.962
					c5.161-86.938,17.583-184.556,70.586-249.395c17.939-21.977,40.019-39.365,65.63-51.67c0.43-0.21,0.879-0.396,1.333-0.552
					c61.289-21.328,111.299-51.519,152.871-92.29c52.803-64.077,45.664-94.736,40.127-104.956
					c-6.924-12.788-23.848-18.984-45.386-16.538c-20.083,2.256-39.136,12.295-53.662,28.271
					c-81.831,89.79-177.847,152.119-285.391,185.264c-6.733,2.075-13.882-1.699-15.957-8.438s1.699-13.882,8.438-15.957
					c103.125-31.787,195.322-91.694,274.033-178.057c18.687-20.552,43.438-33.501,69.678-36.455
					c32.197-3.638,58.628,7.476,70.693,29.751c9.961,18.389,17.578,60.23-43.315,133.887c-0.278,0.337-0.576,0.659-0.884,0.962
					c-43.643,42.949-98.193,76.06-162.158,98.423c-22.231,10.791-40.649,25.357-56.279,44.507
					c-48.311,59.097-59.907,151.543-64.844,234.282c2.28,153.501-75.151,280.522-207.192,339.858
					C1158.203,1562.835,1113.828,1572.503,1074.428,1572.503z"/>
			</g>
			<g>
				<path style="fill:#371A45;" d="M1129.824,1090.711c-0.781,0-1.572-0.073-2.368-0.225c-6.929-1.299-11.494-7.969-10.19-14.897
					c9.99-53.252,33.477-114.644,59.834-156.397c12.271-19.438,31.938-33.369,53.97-38.218
					c74.78-16.479,224.824-4.487,244.863,77.207c1.68,6.846-2.51,13.76-9.356,15.439c-6.836,1.67-13.76-2.51-15.439-9.355
					c-14.028-57.178-139.854-74.829-214.58-58.359c-15.415,3.393-29.214,13.203-37.866,26.909
					c-24.78,39.253-46.89,97.144-56.338,147.481C1141.206,1086.428,1135.844,1090.711,1129.824,1090.711z"/>
			</g>
			<g>
				
					<ellipse transform="matrix(0.1224 -0.9925 0.9925 0.1224 -390.0406 2477.207)" style="fill:#371A45;" cx="1205.766" cy="1459.16" rx="29.687" ry="29.687"/>
				<path style="fill:#371A45;" d="M1205.732,1491.238c-5.064,0-10.083-1.211-14.702-3.599c-7.608-3.941-13.228-10.601-15.82-18.765
					c-2.593-8.159-1.855-16.841,2.08-24.448c3.936-7.608,10.601-13.228,18.76-15.825c8.164-2.593,16.851-1.851,24.453,2.08
					c7.607,3.94,13.228,10.6,15.82,18.765c2.593,8.159,1.856,16.841-2.08,24.448c-3.936,7.608-10.601,13.228-18.76,15.825
					C1212.28,1490.735,1208.999,1491.238,1205.732,1491.238z M1205.747,1431.844c-2.734,0-5.513,0.415-8.257,1.289
					c-6.948,2.212-12.627,6.997-15.981,13.477c-3.35,6.479-3.979,13.877-1.768,20.825c2.207,6.953,6.992,12.632,13.472,15.981
					c6.47,3.35,13.872,3.984,20.83,1.773c14.35-4.565,22.314-19.956,17.749-34.302v-0.005
					C1228.105,1439.275,1217.329,1431.844,1205.747,1431.844z"/>
			</g>
			<g>
				
					<ellipse transform="matrix(0.9191 -0.3941 0.3941 0.9191 -429.5911 609.0856)" style="fill:#371A45;" cx="1268.175" cy="1350.49" rx="29.687" ry="29.687"/>
				<path style="fill:#371A45;" d="M1268.203,1382.556c-13.599,0-26.25-8.721-30.586-22.349c-2.593-8.164-1.855-16.851,2.08-24.453
					c3.94-7.607,10.6-13.228,18.765-15.82c8.159-2.583,16.851-1.86,24.448,2.08c7.608,3.936,13.228,10.596,15.825,18.755v0.005
					c5.352,16.846-3.994,34.912-20.84,40.274C1274.677,1382.068,1271.411,1382.556,1268.203,1382.556z M1268.208,1323.167
					c-2.783,0-5.581,0.43-8.306,1.299c-6.953,2.207-12.632,6.992-15.981,13.472c-3.354,6.479-3.984,13.877-1.773,20.83
					c4.566,14.351,19.937,22.329,34.307,17.749c14.346-4.565,22.309-19.951,17.749-34.307v0.005
					c-2.212-6.953-6.997-12.632-13.477-15.981C1276.792,1324.197,1272.519,1323.167,1268.208,1323.167z"/>
			</g>
			<g>
				
					<ellipse transform="matrix(0.4596 -0.8881 0.8881 0.4596 -391.9182 1820.8212)" style="fill:#371A45;" cx="1300.277" cy="1232.464" rx="29.687" ry="29.687"/>
				<path style="fill:#371A45;" d="M1300.239,1264.544c-5.058,0-10.078-1.211-14.697-3.604c-7.607-3.935-13.223-10.6-15.82-18.765
					c-2.593-8.159-1.855-16.841,2.08-24.448c3.936-7.608,10.601-13.223,18.765-15.82c16.836-5.342,34.907,3.999,40.269,20.84v0.005
					c2.593,8.159,1.855,16.846-2.08,24.448c-3.941,7.607-10.601,13.227-18.765,15.82
					C1306.792,1264.036,1303.505,1264.544,1300.239,1264.544z M1300.258,1205.154c-2.734,0-5.513,0.41-8.257,1.284
					c-6.948,2.207-12.627,6.992-15.981,13.472c-3.35,6.479-3.979,13.877-1.768,20.825c2.207,6.953,6.992,12.632,13.472,15.986
					s13.882,3.984,20.825,1.768c6.953-2.207,12.632-6.992,15.981-13.472c3.354-6.479,3.984-13.877,1.773-20.825l0,0
					C1322.612,1212.581,1311.835,1205.154,1300.258,1205.154z"/>
			</g>
			<g>
				
					<ellipse transform="matrix(0.7407 -0.6718 0.6718 0.7407 -390.4532 1168.8765)" style="fill:#371A45;" cx="1319.021" cy="1090.26" rx="29.687" ry="29.687"/>
				<path style="fill:#371A45;" d="M1319.047,1122.327c-13.599,0-26.25-8.721-30.586-22.349c-2.593-8.164-1.856-16.851,2.08-24.453
					c3.94-7.607,10.601-13.228,18.765-15.82c8.164-2.588,16.846-1.856,24.448,2.08c7.607,3.936,13.228,10.596,15.825,18.755v0.005
					c5.351,16.846-3.994,34.912-20.84,40.274C1325.522,1121.839,1322.255,1122.327,1319.047,1122.327z M1319.004,1062.947
					c-2.734,0-5.513,0.415-8.257,1.289c-14.355,4.561-22.314,19.946-17.754,34.302c4.565,14.346,19.941,22.329,34.307,17.749
					c14.346-4.565,22.31-19.951,17.749-34.307v0.005C1341.357,1070.374,1330.581,1062.947,1319.004,1062.947z"/>
			</g>
			<g>
				
					<ellipse transform="matrix(0.0787 -0.9969 0.9969 0.0787 -169.9674 2180.0862)" style="fill:#371A45;" cx="1094.487" cy="1181.999" rx="26.647" ry="18.646"/>
				<path style="fill:#371A45;" d="M1093.457,1210.979c-0.415,0-0.835-0.015-1.25-0.049c-11.557-0.913-19.936-14.634-18.677-30.586
					c0.596-7.578,3.247-14.565,7.461-19.678c4.414-5.352,10.059-8.052,15.776-7.598c5.762,0.449,10.874,3.994,14.395,9.981
					c3.359,5.708,4.883,13.027,4.282,20.601c-0.596,7.578-3.247,14.565-7.461,19.682
					C1103.886,1208.298,1098.769,1210.979,1093.457,1210.979z M1095.542,1157.771c-3.882,0-7.715,2.075-10.884,5.918
					c-3.599,4.37-5.869,10.415-6.392,17.026c-1.05,13.345,5.371,24.771,14.312,25.479c4.272,0.342,8.34-1.763,11.738-5.884
					c3.599-4.37,5.869-10.42,6.392-17.031l0,0c0.522-6.616-0.771-12.944-3.643-17.822c-2.71-4.604-6.499-7.324-10.669-7.651
					C1096.113,1157.781,1095.825,1157.771,1095.542,1157.771z"/>
			</g>
			<g>
				
					<ellipse transform="matrix(0.0787 -0.9969 0.9969 0.0787 -53.8975 2136.1101)" style="fill:#371A45;" cx="1128.736" cy="1097.215" rx="31.439" ry="21.999"/>
				<path style="fill:#371A45;" d="M1127.519,1130.984c-0.483,0-0.962-0.02-1.44-0.059c-6.655-0.527-12.568-4.634-16.646-11.567
					c-3.921-6.665-5.693-15.21-4.995-24.058c1.47-18.589,13.677-32.983,26.958-31.797c13.398,1.06,23.105,17.041,21.641,35.63l0,0
					c-0.698,8.852-3.794,17.012-8.706,22.979C1139.58,1127.874,1133.657,1130.984,1127.519,1130.984z M1129.97,1068.201
					c-10.361,0-19.575,12.017-20.796,27.471c-0.625,7.891,0.923,15.444,4.355,21.274c3.267,5.561,7.856,8.843,12.92,9.243
					c5.166,0.449,10.112-2.124,14.209-7.1c4.307-5.22,7.017-12.442,7.642-20.327c1.255-15.977-6.494-29.668-17.275-30.523
					C1130.673,1068.211,1130.322,1068.201,1129.97,1068.201z"/>
			</g>
			<g>
				
					<ellipse transform="matrix(0.3144 -0.9493 0.9493 0.3144 -510.6745 1869.1254)" style="fill:#371A45;" cx="1038.67" cy="1288.106" rx="26.647" ry="18.646"/>
				<path style="fill:#371A45;" d="M1034.453,1316.443c-1.66,0-3.306-0.254-4.907-0.786c-5.483-1.816-9.6-6.479-11.592-13.13
					c-1.899-6.348-1.626-13.818,0.762-21.03s6.631-13.369,11.943-17.329c5.557-4.141,11.631-5.435,17.134-3.613
					c11.001,3.643,15.864,18.97,10.835,34.16l0,0C1054.326,1307.693,1044.179,1316.443,1034.453,1316.443z M1042.807,1264.51
					c-3.032,0-6.24,1.182-9.312,3.472c-4.536,3.379-8.184,8.711-10.269,15.01c-2.085,6.299-2.344,12.754-0.723,18.174
					c1.533,5.122,4.565,8.667,8.535,9.98c8.491,2.827,18.867-5.224,23.076-17.925c4.204-12.705,0.698-25.337-7.818-28.154
					C1045.175,1264.695,1044.004,1264.51,1042.807,1264.51z"/>
			</g>
			<g>
				
					<ellipse transform="matrix(0.5211 -0.8535 0.8535 0.5211 -701.1886 1507.1256)" style="fill:#371A45;" cx="992.317" cy="1378.351" rx="26.647" ry="18.646"/>
				<path style="fill:#371A45;" d="M985.786,1405.476c-3.105,0-6.021-0.781-8.594-2.354c-9.888-6.035-11.152-22.066-2.817-35.723
					c8.34-13.667,23.159-19.878,33.066-13.818c9.888,6.04,11.157,22.066,2.817,35.723v-0.005
					c-3.955,6.489-9.482,11.528-15.552,14.18C991.66,1404.812,988.642,1405.476,985.786,1405.476z M998.784,1355.969
					c-6.953,0-15.068,5.249-20.357,13.906c-6.968,11.421-6.411,24.517,1.245,29.194c3.565,2.178,8.232,2.202,13.13,0.059
					c5.186-2.27,9.946-6.636,13.403-12.3v-0.005c6.968-11.421,6.411-24.512-1.245-29.189
					C1003.11,1356.506,1001.005,1355.969,998.784,1355.969z"/>
			</g>
			<g>
				
					<ellipse transform="matrix(0.088 -0.9961 0.9961 0.088 92.0955 2152.8303)" style="fill:#371A45;" cx="1221.751" cy="1026.12" rx="34.849" ry="34.849"/>
				<path style="fill:#371A45;" d="M1221.704,1063.362c-5.869,0-11.694-1.406-17.061-4.18c-8.828-4.57-15.351-12.309-18.369-21.787
					c-6.216-19.556,4.639-40.527,24.194-46.753c19.585-6.221,40.542,4.639,46.758,24.199l0,0c3.013,9.473,2.158,19.556-2.412,28.389
					c-4.57,8.828-12.309,15.351-21.787,18.364C1229.311,1062.776,1225.498,1063.362,1221.704,1063.362z M1221.728,993.645
					c-3.252,0-6.558,0.493-9.819,1.528c-17.061,5.425-26.528,23.726-21.104,40.786c2.627,8.267,8.32,15.015,16.021,18.999
					c7.71,3.989,16.509,4.741,24.761,2.104c8.271-2.627,15.019-8.315,19.004-16.021c3.989-7.7,4.736-16.494,2.104-24.766l0,0
					C1248.31,1002.478,1235.498,993.645,1221.728,993.645z"/>
			</g>
			<g>
				<path style="fill:#371A45;" d="M1205.776,1470.33c-3.354,0-6.67-1.504-8.872-4.37
					c-57.954-75.503-111.846-130.713-164.756-168.784c-3.14-2.261-4.888-5.982-4.619-9.839c0.268-3.857,2.51-7.3,5.928-9.106
					c5.903-3.115,133.579-69.8,239.258-61.362c-28.169-31.611-84.902-87.412-146.684-103.599c-5.967-1.563-9.536-7.671-7.974-13.638
					c1.568-5.967,7.661-9.536,13.638-7.974c94.912,24.868,174.199,129.668,177.529,134.116c2.822,3.774,2.974,8.916,0.371,12.847
					c-2.598,3.94-7.368,5.82-11.968,4.692c-81.772-19.966-195.825,27.363-237.598,46.812
					c49.907,38.682,100.649,91.948,154.6,162.231c3.755,4.892,2.832,11.904-2.061,15.664
					C1210.542,1469.573,1208.149,1470.33,1205.776,1470.33z"/>
			</g>
			<g>
				<path style="fill:#371A45;" d="M992.319,1389.524c-4.502,0-8.74-2.739-10.439-7.197c-2.192-5.767,0.703-12.217,6.465-14.414
					c6.304-2.398,142.598-53.525,251.714-35.566c-51.748-65.415-98.628-111.187-146.104-142.857
					c-3.188-2.124-5.063-5.737-4.971-9.565c0.098-3.828,2.143-7.344,5.43-9.312c5.127-3.066,126.636-75.283,225.806-92.08
					c6.05-1.05,11.846,3.061,12.876,9.145c1.03,6.084-3.062,11.846-9.146,12.876c-75.195,12.739-167.217,60.762-202.915,80.591
					c50.396,36.655,100.4,88.823,156.055,162.622c2.935,3.887,3.008,9.224,0.186,13.193c-2.822,3.975-7.91,5.645-12.52,4.165
					c-104.878-33.755-266.841,27.051-268.462,27.666C994.985,1389.29,993.642,1389.524,992.319,1389.524z"/>
			</g>
			<g>
				<path style="fill:#371A45;" d="M1440.981,1244.114c-22.046,0-43.413-8.613-59.59-24.819
					c-21.172-21.206-37.363-50.024-53.018-77.891c-28.257-50.303-54.946-97.818-107.954-104.194
					c-4.648-0.557-8.452-3.955-9.536-8.506c-1.079-4.556,0.791-9.302,4.692-11.89c70.195-46.602,157.231-48.814,227.144-5.767
					c58.73,36.157,90.659,96.704,83.33,158.017l0,0c-3.892,32.568-25.689,59.497-56.885,70.278
					C1459.882,1242.552,1450.366,1244.114,1440.981,1244.114z M1251.181,1022.029c45.869,17.998,71.626,63.852,96.67,108.433
					c15.6,27.778,30.342,54.014,49.35,73.052c17.232,17.256,41.406,22.768,64.663,14.717c23.389-8.081,39.092-27.456,42.007-51.821
					l0,0c6.284-52.559-21.636-104.8-72.861-136.338C1387.124,1003.049,1318.989,988.679,1251.181,1022.029z M1514.96,1167.737h0.049
					H1514.96z"/>
			</g>
			<g>
				<path style="fill:#371A45;" d="M975.615,1261.297c-13.208,0-26.563-3.745-38.857-11.357
					c-28.926-17.905-41.216-50.635-31.304-83.384c36.372-120.249,188.755-197.031,319.678-161.123
					c5.947,1.631,9.448,7.778,7.818,13.726c-0.044,0.161-0.093,0.322-0.142,0.479c1.592,5.874-1.816,11.963-7.686,13.657
					c-51.9,14.975-93.008,71.387-132.759,125.938c-22.437,30.786-43.628,59.868-66.553,81.484
					C1011.372,1254.334,993.628,1261.297,975.615,1261.297z M1157.26,1018.777c-102.124,0-202.949,63.408-230.43,154.243
					c-8.369,27.671,6.45,48.496,21.685,57.925c15.347,9.502,40.781,13.491,61.973-6.479c21.416-20.195,42.012-48.462,63.818-78.389
					c35.962-49.351,72.979-100.142,120.117-124.429C1182.104,1019.71,1169.668,1018.777,1157.26,1018.777z"/>
			</g>
			<g>
				<path style="fill:#371A45;" d="M1297.988,1184.129c-4.351,0-8.486-2.559-10.288-6.816
					c-46.953-110.811-72.119-138.086-72.368-138.35c-4.214-4.443-4.092-11.494,0.318-15.752c4.404-4.258,11.392-4.194,15.679,0.161
					c1.103,1.123,27.617,28.823,76.938,145.229c2.407,5.679-0.244,12.231-5.928,14.639
					C1300.918,1183.845,1299.443,1184.129,1297.988,1184.129z"/>
			</g>
			<g>
				<path style="fill:#371A45;" d="M1169.975,1121.536c-1.768,0-3.56-0.42-5.229-1.308c-5.444-2.891-7.52-9.653-4.624-15.103
					l45.488-85.679c2.896-5.449,9.663-7.524,15.103-4.624c5.444,2.891,7.52,9.653,4.624,15.103l-45.488,85.679
					C1177.841,1119.382,1173.974,1121.536,1169.975,1121.536z"/>
			</g>
			<g>
				<path style="fill:#371A45;" d="M960.09,1504.985c22.168-21.763,41.891-46.393,59.596-72.513
					c17.633-26.198,33.419-53.789,47.908-82.095c29.02-56.647,52.661-116.175,74.016-176.443l0.011-0.031
					c0.883-2.492,3.619-3.796,6.111-2.913c2.439,0.864,3.738,3.512,2.964,5.961c-19.443,61.243-41.227,121.958-68.777,180.454
					c-13.762,29.236-28.921,57.927-46.194,85.525c-17.361,27.525-37,53.899-59.832,77.844c-4.258,4.465-11.329,4.634-15.795,0.376
					c-4.465-4.258-4.634-11.329-0.376-15.794c0.073-0.078,0.148-0.154,0.223-0.229L960.09,1504.985z"/>
			</g>
			<g>
				<path style="fill:#371A45;" d="M1158.568,1553.875c-9.028-5.452-16.244-14.063-20.303-23.24
					c-4.159-9.188-5.957-18.709-6.378-27.739c-1.158-18.235,1.841-35.276,5.331-51.911c7.44-33.17,18.695-64.595,30.443-95.658
					c23.649-62.037,50.78-122.293,72.441-184.427l0.011-0.033c0.87-2.497,3.6-3.815,6.096-2.944c2.445,0.853,3.757,3.496,2.993,5.95
					c-19.849,63.41-45.109,124.692-66.543,186.897c-10.638,31.063-20.669,62.43-26.675,94.011c-2.816,15.698-4.918,31.71-3.419,46.5
					c1.151,14.991,6.836,27.521,17.292,33.32c5.397,2.992,7.345,9.792,4.353,15.188c-2.992,5.396-9.791,7.345-15.188,4.353
					c-0.107-0.059-0.214-0.12-0.317-0.183L1158.568,1553.875z"/>
			</g>
			<g>
				<path style="fill:#371A45;" d="M1546.897,670.52c14.481-8.824,29.607-15.423,45.685-20.447
					c16.017-4.963,32.969-7.84,50.322-7.539c17.292,0.33,35.115,4.26,51.038,12.576c16.084,8.07,29.69,20.434,40.775,34.169
					c4.432,5.492,3.574,13.536-1.918,17.969c-5.491,4.432-13.536,3.574-17.969-1.918c-0.209-0.259-0.406-0.525-0.593-0.795
					l-0.116-0.172c-8.265-12.1-18.341-22.929-30.721-30.468c-12.233-7.753-26.565-12.299-41.537-13.841
					c-14.991-1.506-30.571-0.263-45.814,3.13c-15.176,3.365-30.457,8.634-44.264,15.568l-0.253,0.127
					c-2.361,1.185-5.236,0.233-6.421-2.128C1543.988,674.514,1544.801,671.806,1546.897,670.52z"/>
			</g>
			<g>
				<path style="fill:#371A45;" d="M1657.495,1539.793c-0.049,0-0.098,0-0.142,0c-6.167-0.073-11.108-5.137-11.03-11.304
					c1.343-109.678,86.572-208.11,168.994-303.301c108.481-125.293,220.659-254.849,151.445-414.019
					c-2.456-5.654,0.132-12.236,5.791-14.697c5.654-2.456,12.236,0.127,14.697,5.791c74.819,172.065-42.036,307.026-155.049,437.544
					c-83.462,96.397-162.3,187.451-163.545,288.955C1668.584,1534.885,1663.598,1539.793,1657.495,1539.793z"/>
			</g>
			<g>
				<path style="fill:#371A45;" d="M1551.674,1762.737c-1.484,0-2.988-0.298-4.434-0.923c-5.659-2.451-8.262-9.028-5.811-14.688
					c34.951-80.693,30.977-177.876,26.763-280.767c-5.767-140.923-11.733-286.65,82.695-405.039
					c0.122-0.161,0.254-0.313,0.391-0.464c104.966-117.905,208.589-259.429,181.318-415.127c-0.933-5.327,2.085-10.562,7.163-12.417
					c5.088-1.875,10.757,0.19,13.486,4.858c77.07,132.095,14.023,245.913-52.725,366.411
					c-62.666,113.135-127.471,230.122-83.115,374.209c1.816,5.894-1.494,12.144-7.388,13.96c-5.898,1.812-12.143-1.494-13.96-7.388
					c-47.153-153.169,23.017-279.844,84.927-391.607c55.283-99.805,104.282-188.267,78.189-285.078
					c-5.015,137.944-97.432,261.66-191.011,366.802c-89.043,111.841-83.247,253.228-77.651,389.966
					c4.321,105.513,8.398,205.176-28.584,290.557C1560.102,1760.218,1555.991,1762.737,1551.674,1762.737z"/>
			</g>
			<g>
				<path style="fill:#371A45;" d="M1315.63,1981.497c-0.269,0-0.537-0.01-0.816-0.034c-6.152-0.44-10.776-5.791-10.332-11.943
					c5.747-79.707,52.305-154.834,106.216-241.826c70.737-114.141,150.908-243.511,156.113-417.173
					c0.181-6.05,5.142-10.83,11.157-10.83c0.112,0,0.225,0,0.342,0.005c6.162,0.181,11.011,5.332,10.825,11.499
					c-5.381,179.653-87.231,311.733-159.448,428.267c-52.358,84.483-97.573,157.446-102.93,231.67
					C1326.338,1977.01,1321.435,1981.497,1315.63,1981.497z"/>
			</g>
			<g>
				<path style="fill:#371A45;" d="M1119.472,2059.954c-0.088,0-0.176,0-0.268,0c-6.167-0.146-11.045-5.264-10.903-11.431
					c2.334-99.483,83.467-168.101,177.412-247.554c64.16-54.263,136.885-115.767,197.935-197.49
					c3.696-4.937,10.693-5.943,15.635-2.266c4.941,3.696,5.957,10.693,2.266,15.635c-62.583,83.765-136.338,146.143-201.411,201.177
					c-93.53,79.102-167.407,141.582-169.502,231.025C1130.493,2055.125,1125.517,2059.954,1119.472,2059.954z"/>
			</g>
			<g style="opacity:0.5;">
				<path style="fill:#371A45;" d="M1349.278,891.26c0,0,131.392-66.224,186.924-118.179
					c55.532-51.955,145.453-159.371,193.608-59.302c0,0,11.29,92.924-175.417,186.781c0,0-73.153,24.714-91.846,57.133
					C1462.548,957.693,1430.009,889.299,1349.278,891.26z"/>
				<path style="fill:#371A45;" d="M1462.348,962.796l-1.943-4.082c-0.317-0.659-31.973-65.122-107.793-65.122
					c-1.084,0-2.173,0.015-3.276,0.039l-10.557,0.259l9.429-4.756c1.309-0.659,131.724-66.66,186.372-117.788
					c6.392-5.981,13.218-12.681,20.449-19.771c39.932-39.16,89.639-87.881,131.431-80.581c18.403,3.223,33.711,17.271,45.488,41.753
					l0.22,0.742c0.469,3.862,9.35,95.659-176.704,189.194c-1.03,0.371-72.827,24.927-90.854,56.196L1462.348,962.796z
					 M1358.881,888.982c63.945,2.935,95.923,50.381,103.828,64.043c21.699-31.05,88.013-53.73,90.923-54.717
					c176.602-88.804,174.268-177.529,173.848-183.892c-11.055-22.783-25.127-35.815-41.841-38.745
					c-39.448-6.855-88.125,40.898-127.28,79.297c-7.251,7.109-14.102,13.828-20.537,19.844
					C1490.888,818.728,1388.989,873.299,1358.881,888.982z"/>
			</g>
			<g style="opacity:0.3;">
				<path style="fill:#371A45;" d="M2053,1410.623c-206.197,91.546-350.105,278.946-480.98,486.379
					c-184.12,221.115-453.124,313.644-801.28,242.748c-63.654-12.946-118.468-53.38-148.137-110.148
					c-2.013-7.698-3.464-15.106-4.365-22.153c-22.986-184.665,245.912-23.506,285.112,36.593
					c39.2,60.099,112.508,62.441,112.508,62.441c226.576,10.569,400.791-129.642,478.843-203.583
					c78.053-73.941,244.649-343.429,244.649-343.429c65.597-124.662,131.361-162.783,169.717-174.149
					c37.98-11.254,73.791-28.979,104.544-53.947c179.9-146.055,104.161-278.955,100.694-284.747
					C2213.741,1173.904,2209.367,1310.644,2053,1410.623z"/>
				<path style="fill:#371A45;" d="M990.903,2165.506c-70.249,0-143.906-7.803-220.635-23.428
					c-65.102-13.237-119.692-53.833-149.771-111.377l-0.195-0.498c-2.017-7.715-3.501-15.273-4.419-22.451
					c-5.684-45.684,5.767-74.092,34.033-84.438c70.488-25.786,226.563,75.185,255.425,119.429
					c38.086,58.389,109.873,61.343,110.596,61.367c207.051,9.565,373.779-105.024,477.129-202.93
					c76.938-72.886,242.598-340.264,244.263-342.959c64.126-121.875,128.428-162.544,171.064-175.176
					c39.512-11.704,74.409-29.712,103.721-53.516c178.774-145.137,103.447-276.172,100.151-281.68l3.911-2.685
					c53.179,68.066,75.537,137.651,64.663,201.24c-10.864,63.545-53.447,119.473-126.563,166.221l-0.317,0.171
					c-211.978,94.116-355.938,288.95-479.927,485.478c-93.657,112.5-208.13,190.43-340.43,231.875
					C1158.383,2153.714,1077.226,2165.506,990.903,2165.506z M624.834,2028.743c29.439,56.138,82.773,95.742,146.382,108.677
					c334.219,68.052,610.508-15.596,798.98-241.934c124.18-196.86,268.618-392.305,481.675-486.963
					c71.851-45.976,113.662-100.791,124.287-162.92c9.712-56.811-7.808-118.686-50.742-179.99
					c15.532,43.618,32.686,151.518-110.303,267.607c-29.805,24.199-65.254,42.495-105.371,54.385
					c-34.185,10.127-101.509,46.064-168.286,172.974c-1.753,2.837-167.739,270.742-245.117,344.048
					c-99.878,94.619-258.599,204.795-455.859,204.805c-8.184,0-16.411-0.186-24.731-0.576c-0.708-0.024-74.961-3.076-114.39-63.516
					c-28.325-43.433-181.167-142.729-249.805-117.563c-25.913,9.482-36.328,36.191-30.952,79.38
					C621.479,2014.051,622.905,2021.311,624.834,2028.743z"/>
			</g>
			<g style="opacity:0.3;">
				<path style="fill:#371A45;" d="M718.174,1837.268c121.148,57.181,250.373,94.531,376.71,26.825
					c43.543-23.335,78.084-60.399,100.267-104.54c36.91-73.446,118.228-208.324,229.69-238.499
					c155.046-41.975,22.33-438.159,122.172-503.284c99.841-65.126,312.46-210.862,239.243-413.052c0,0,53.602,11.088,60.458,61.814
					s-19.918,147.988-19.918,147.988s-54.205,108.583-136.52,218.413c-82.315,109.83-101.493,191.109-101.493,191.109
					s-17.906,168.509-23.517,192.709c-5.611,24.2-68.742,216.012-140.34,281.471c-71.598,65.459-182.548,154.638-182.548,154.638
					s-125.937,108.363-121.531,190.676c0,0-115.255,50.877-179.786-44.131C876.53,1904.397,718.174,1837.268,718.174,1837.268z"/>
				<path style="fill:#371A45;" d="M1051.435,2059.27c-36.846,0-80.732-11.992-112.344-58.535
					c-49.688-73.159-156.836-130.317-201.582-151.924c-6.856-3.091-13.633-6.226-20.352-9.394l1.943-4.336
					c0.342,0.146,7.93,3.398,20.273,9.355c107.202,48.281,231.133,83.618,354.385,17.564
					c42.305-22.676,76.631-58.467,99.267-103.516c38.482-76.572,119.683-209.536,231.196-239.727
					c84.097-22.764,81.733-152.012,79.443-277.007c-1.846-100.898-3.589-196.201,42.046-225.972
					c85.591-55.83,312.949-204.131,238.306-410.254l-1.445-3.999l4.165,0.859c0.552,0.117,55.332,12.031,62.329,63.828
					c6.841,50.625-18.882,144.946-19.98,148.935c-0.708,1.519-55.405,110.464-136.909,219.209
					c-81.016,108.096-100.889,189.419-101.079,190.229c-0.684,6.592-17.934,168.638-23.516,192.7
					c-4.404,18.994-67.354,215.308-141.055,282.685c-70.83,64.761-181.553,153.848-182.661,154.736
					c-1.191,1.025-124.941,108.501-120.645,188.696l0.088,1.636l-1.504,0.664C1121.21,2045.969,1090.224,2059.27,1051.435,2059.27z
					 M787.387,1869.588c51.338,29.019,118.892,74.375,155.64,128.481c58.735,86.48,161.777,49.307,175.376,43.901
					c-2.69-82.271,117.28-186.489,122.427-190.913c1.167-0.942,111.772-89.932,182.495-154.59
					c72.856-66.616,135.259-261.401,139.629-280.254c5.513-23.784,23.286-190.742,23.467-192.422
					c0.244-1.113,20.288-83.32,101.958-192.285c81.245-108.403,135.752-216.963,136.294-218.047
					c0.098-0.537,26.396-96.948,19.688-146.611c-5.439-40.239-41.826-54.805-54.36-58.657
					c71.279,207.417-155.83,355.562-241.69,411.572c-43.433,28.325-41.714,122.354-39.892,221.904
					c2.319,126.812,4.722,257.944-82.954,281.68c-109.727,29.702-190.063,161.411-228.188,237.271
					c-23.081,45.928-58.096,82.432-101.27,105.571C989.77,1923.123,883.383,1905.95,787.387,1869.588z"/>
			</g>
			<g style="opacity:0.3;">
				<path style="fill:#371A45;" d="M1894.775,710.526c0,0,86.267,131.397,33.79,266.398
					c-52.477,135.001-143.401,165.631-205.507,374.014c166.588-169.758,289.715-340.14,269.196-512.58
					C1992.254,838.358,1935.442,736.335,1894.775,710.526z"/>
				<path style="fill:#371A45;" d="M1718.042,1359.436l2.739-9.18c36.235-121.567,83.242-184.175,124.717-239.409
					c30.347-40.41,59.004-78.584,80.85-134.785c51.416-132.266-32.705-262.93-33.559-264.233l-6.045-9.214l9.307,5.903
					c40.708,25.84,95.952,124.497,98.281,128.682l0.283,0.879c22.529,189.351-132.383,374.434-269.863,514.522L1718.042,1359.436z
					 M1902.822,719.519c18.74,33.76,71.855,145.332,27.959,258.262c-22.085,56.812-50.938,95.239-81.484,135.918
					c-42.124,56.104-85.649,114.072-121.138,228.623c134.868-138.345,283.398-319.136,261.792-503.213
					C1986.293,832.61,1940.107,751.331,1902.822,719.519z"/>
			</g>
			<g style="opacity:0.25;">
				<path style="fill:#FFFFFF;" d="M756.042,1738.835c-7.449,10.077-14.255,24.215-6.853,34.327
					c6.142,8.389,18.433,8.598,28.76,7.393c27.647-3.226,54.791-10.73,80.169-22.164c16.659-7.505,32.975-17.049,44.241-31.434
					c11.266-14.385,16.647-34.447,9.843-51.404C882.041,1600.382,777.715,1709.517,756.042,1738.835z"/>
			</g>
			<g style="opacity:0.25;">
				<path style="fill:#FFFFFF;" d="M917.039,1611.83c-2.083,6.181-2.534,13.319,0.736,18.962c3.224,5.563,9.585,8.743,15.957,9.607
					c6.371,0.865,12.831-0.276,19.127-1.583c9.247-1.919,18.603-4.282,26.587-9.327c7.984-5.045,14.497-13.229,15.339-22.636
					c1.032-11.52-7.305-22.896-18.353-26.315c-12.906-3.994-22.58,3.38-33.802,8.235
					C931.094,1593.766,921.322,1599.124,917.039,1611.83z"/>
			</g>
		</g>
		<g>
			<g>
				<path style="fill:#8E99A0;" d="M2045.123,2164.811c192.282,118.005,310.15,322.787,412.449,545.702
					c153.269,243.517,407.677,370.801,762.15,346.56c73.487-5.017,140.372-46.553,174.95-111.607
					c22.022-41.409,30.294-89.722,16.323-136.877c31.545-98.588-16.157-193.109-117.998-284.891
					c-123.12-132.185-199.268-291.127-227.768-477.213c7.859-189.798-44.994-340.83-228.229-408.496
					c-49.488-36.766-88.794-77.695-119.588-122.089c-83.119-124.691-233.261-184.874-352.998-94.904
					c-111.265,88.989-210.875,196.736-295.644,328.234c-6.588,10.16-13.058,20.445-19.439,30.914
					C1918.721,1896.103,1896.679,2039.422,2045.123,2164.811z"/>
			</g>
			<g style="opacity:0.6;">
				<path style="fill:#FFFFFF;" d="M2389.176,1404.759c108.387-42.014,228.978,17.47,300.28,124.421
					c30.793,44.395,70.1,85.323,119.588,122.089c183.235,67.667,236.088,218.698,228.229,408.496
					c28.5,186.085,104.648,345.027,227.768,477.213c101.841,91.781,149.543,186.303,117.999,284.891
					c13.97,47.155,5.698,95.468-16.324,136.877c-18.986,35.714-47.713,64.331-81.938,83.726
					c46.473-18.137,85.931-51.928,109.895-97.008c22.022-41.409,30.294-89.722,16.323-136.877
					c31.545-98.588-16.157-193.109-117.998-284.891c-123.12-132.185-199.268-291.127-227.768-477.213
					c7.859-189.798-44.994-340.83-228.229-408.496c-49.488-36.766-88.794-77.695-119.588-122.089
					C2639.942,1399.655,2504.189,1339.481,2389.176,1404.759z"/>
			</g>
			<g style="opacity:0.6;">
				<path style="fill:#FFFFFF;" d="M2898.619,2409.769c-191.832-24.717-245.331-242.304-209.482-447.661
					c4.169-80.737-8.64-157.563-78.982-204.799c-92.089-39.653-155.032-103.035-176.409-189.864
					c-13.858-27.699-3.665-114.757,61.884-89.865c-62.924,18.026-38.336,136.242,32.396,189.656c0,0,49.321,42.156,110.745,77.03
					s79.41,130.023,79.41,130.023s6.204,100.153,4.248,183.027C2720.472,2140.192,2696.535,2269.211,2898.619,2409.769z"/>
			</g>
			<g>
				<g>
					<path style="fill:#F46800;" d="M2886.083,2920.801c17.4-158.772-188.618-263.271-311.857-484.109
						c66.959,133.915,117.119,261.531,128.057,374.441C2752.261,2864.88,2814.321,2900.229,2886.083,2920.801z"/>
				</g>
				<g>
					<path style="fill:#371A45;" d="M2888.139,2923.865l-2.71-0.776c-74.453-21.348-136.655-58.472-184.883-110.337l-0.547-0.586
						l-0.078-0.801c-9.678-99.844-50.293-218.564-127.822-373.608l4.199-2.222c50.2,89.956,114.512,160.933,171.25,223.55
						c84.536,93.296,151.304,166.987,140.899,261.978L2888.139,2923.865z M2704.57,2810.105
						c46.963,50.278,107.319,86.479,179.438,107.622c8.545-91.528-57.1-163.979-139.98-255.454
						c-47.085-51.963-99.365-109.658-144.595-179.248C2662.109,2615.432,2695.727,2720.286,2704.57,2810.105z"/>
				</g>
			</g>
			<g style="opacity:0.6;">
				<path style="fill:#FFFFFF;" d="M2574.213,2436.695c23.129,46.285,44.284,91.817,62.502,136.247
					c108.569,135.664,228.474,225.27,229.16,341.553c6.633,2.244,13.362,4.358,20.202,6.312
					C2903.479,2762.035,2697.463,2657.525,2574.213,2436.695z"/>
			</g>
			<g>
				<g>
					<path style="fill:#F46800;" d="M2421.561,2334.069c29.625-245-384.315-487.511-221.267-757.815l-142.246,185.419
						c-43.515,131.526,23.581,231.324,157.628,311.921C2311.204,2124.7,2377.93,2214.05,2421.561,2334.069z"/>
				</g>
				<g>
					<path style="fill:#371A45;" d="M2422.729,2344.226l-3.398-9.346c-44.814-123.267-113.711-210.474-204.775-259.194
						c-147.588-88.735-199.487-191.675-158.765-314.761l0.371-0.698l142.246-185.42l3.921,2.671
						c-92.51,153.364,3.101,298.965,95.562,439.775c71.382,108.716,138.809,211.406,126.03,317.1L2422.729,2344.226z
						 M2060.175,1762.801c-39.687,120.493,11.582,221.484,156.729,308.755c89.604,47.939,157.998,132.71,203.281,251.992
						c7.188-100.439-57.7-199.263-126.27-303.682c-88.057-134.111-178.955-272.519-109.673-418.789L2060.175,1762.801z"/>
				</g>
			</g>
			<g style="opacity:0.6;">
				<path style="fill:#FFFFFF;" d="M2150.167,1641.575c-73.153,200.863,145.365,387.08,221.233,571.466
					c5.143,12.443,9.6,24.916,13.3,37.349c13.778,25.932,26.031,53.827,36.873,83.667c1.128-9.205,1.615-18.395,1.501-27.586
					l-33.409-123.275c0.503-1.068,0.979-2.149,1.439-3.203c-3.94-8.631-8.152-17.283-12.607-25.945
					c-95.478-185.445-301.324-373.697-178.212-577.789L2150.167,1641.575z"/>
			</g>
			<g>
				<path style="fill:#371A45;" d="M2702.027,2817.092c10.992-181.166-204.358-382.537-172.858-688.367l-196.34-500.952
					l6.615-186.324c0,0-132.592,115.188-153.572,161.745c-58.913,154.259,23.612,329.755,168.796,514.659
					c0,0,91.813,122.063,61.759,200.797l50.789,179.164C2512.808,2627.919,2593.648,2732.482,2702.027,2817.092z"/>
				<path style="fill:#82898E;" d="M2704.125,2821.746l-3.56-2.778c-112.651-87.949-191.919-195.732-235.591-320.366
					l-51.045-180.063l0.278-0.737c29.239-76.597-60.527-197.31-61.44-198.521c-168.228-214.258-221.973-378.53-169.116-516.934
					c21.011-46.626,148.804-157.974,154.233-162.69l4.126-3.589l-6.787,191.294l196.367,501.03l-0.059,0.576
					c-18.042,175.171,44.834,315.151,100.308,438.652c41.46,92.3,77.266,172.012,72.559,249.614L2704.125,2821.746z
					 M2418.93,2318.753l50.571,178.413c42.861,122.295,120.366,228.369,230.381,315.225c2.998-75.034-31.992-152.915-72.373-242.822
					c-55.659-123.911-118.736-264.346-100.762-440.513l-196.309-500.874l0.02-0.493l6.416-180.82
					c-22.559,19.902-130.381,116.353-148.833,157.305c-52.153,136.558,1.372,299.36,168.496,512.217
					C2360.336,2121.438,2448.276,2239.7,2418.93,2318.753z"/>
			</g>
			<g style="opacity:0.6;">
				<path style="fill:#FFFFFF;" d="M2317.772,1460.747l-6.567,185.186l196.329,500.954
					c-29.431,285.642,156.49,480.166,172.158,652.16c7.308,6.125,14.742,12.134,22.33,18.039
					c10.986-181.163-204.344-382.527-172.84-688.36l-196.357-500.967l6.64-186.315
					C2339.465,1441.444,2330.916,1448.88,2317.772,1460.747z"/>
			</g>
			<g>
				<path style="fill:#00B9F2;" d="M2392.125,2182.297c132.596-288.17-214.53-522.861-38.055-749.888
					c-46.303,146.561,25.058,295.516,126.243,445.077c132.014,219.895-41.296,487.085,16.653,691.555"/>
				<path style="fill:#371A45;" d="M2494.682,2569.69c-24.824-87.588-7.773-184.873,10.283-287.866
					c23.921-136.484,48.657-277.612-26.689-403.115c-87.729-129.668-171.123-282.192-130.225-434.18
					c-78.384,111.299-33.647,225.522,13.628,346.245c48.193,123.066,98.032,250.327,32.603,392.515l-4.316-1.982
					c64.58-140.356,15.122-266.655-32.71-388.799c-49.292-125.869-95.85-244.761-5.059-361.557l8.135-10.464l-3.994,12.642
					c-48.745,154.292,36.309,310.537,125.942,443.027c76.328,127.134,51.436,269.15,27.363,406.489
					c-17.954,102.446-34.917,199.209-10.391,285.747L2494.682,2569.69z"/>
			</g>
			<g style="opacity:0.6;">
				<path style="fill:#FFFFFF;" d="M2378.496,2154.049c4.455,8.661,8.667,17.314,12.607,25.945
					c115.98-258.643-152.512-474.234-77.117-680.003c2.138-20.477,6.303-40.916,12.739-61.307
					C2157.353,1656.569,2470.286,1881.535,2378.496,2154.049z"/>
			</g>
			<g>
				<path style="fill:#F2E7ED;" d="M2045.123,2164.811c192.282,118.005,310.15,322.787,412.449,545.702
					c153.269,243.517,407.677,370.801,762.15,346.56c64.807-4.416,124.486-37.248,161.4-89.595
					c4.948-6.981,9.474-14.338,13.551-22.012c22.022-41.409,30.294-89.722,16.323-136.877
					c-38.668-103.882-244.035-30.882-342.821,91.435c-18.789,23.248-46.658,37.241-76.551,37.792
					c-194.373,3.568-444.349-213.21-513.361-414.686c-49.413-205.785-119.073-386.576-278.087-456.903
					c-121.326-89.887-200.794-188.269-131.406-316.999c-6.588,10.16-13.058,20.445-19.439,30.914
					c-5.819,5.16-11.422,10.386-16.81,15.678l-0.041,0.087C1917.091,1908.917,1903.348,2045.035,2045.123,2164.811z"/>
				<path style="fill:#371A45;" d="M3136.186,3062.361c-140.083,0-265.571-25.469-373.994-76.006
					c-125.659-58.569-228.823-150.952-306.631-274.575c-97.07-211.47-214.004-423.633-411.685-544.941l-0.288-0.21
					c-66.289-56.006-101.104-117.07-103.472-181.494c-2.368-64.38,28.906-130.303,90.439-190.674l0.303-0.332
					c5.351-5.264,10.947-10.483,16.631-15.527c6.274-10.288,12.764-20.605,19.287-30.669l4.082,2.422
					c-73.638,136.626,24.604,235.303,130.518,313.809c166.777,73.926,234.727,273.203,279.194,458.408
					c72.51,211.665,325.63,416.113,511.011,412.871c28.975-0.537,56.216-13.989,74.746-36.914
					c72.075-89.243,201.514-153.442,282.715-140.249c31.87,5.195,54.067,22.305,64.18,49.478
					c13.257,44.731,7.397,93.979-16.45,138.823c-4.121,7.754-8.736,15.249-13.711,22.271
					c-37.417,53.057-96.895,86.079-163.179,90.591C3191.445,3061.389,3163.53,3062.361,3136.186,3062.361z M2046.518,2162.884
					c198.672,121.987,316.006,334.814,413.213,546.641c156.743,248.994,419.526,368.462,759.829,345.181
					c64.849-4.419,123.032-36.709,159.619-88.594c4.863-6.865,9.37-14.185,13.394-21.758c23.262-43.74,28.994-91.719,16.143-135.093
					c-9.565-25.688-29.917-41.318-60.439-46.289c-79.634-13.013-207.114,50.459-278.252,138.545
					c-19.414,24.019-47.974,38.115-78.354,38.672c-91.113,1.714-202.588-46.064-305.249-130.991
					c-98.457-81.445-177.114-188.101-210.405-285.298c-44.282-184.385-111.743-382.495-276.802-455.498l-0.454-0.264
					c-70.454-52.202-114.282-98.203-137.92-144.771c-23.823-46.924-26.729-94.092-8.662-143.325
					c-0.273,0.444-0.547,0.894-0.82,1.338l-0.449,0.542c-5.62,4.98-11.157,10.137-16.455,15.337v0.005l-0.313,0.342
					c-60.723,59.473-91.597,124.258-89.277,187.354C1947.177,2047.942,1981.386,2107.81,2046.518,2162.884z"/>
			</g>
			<g>
				<path style="fill:#371A45;" d="M3136.21,3072.752c-141.626,0-268.599-25.796-378.408-76.978
					c-127.5-59.424-232.144-153.105-311.025-278.447c-0.303-0.474-0.566-0.967-0.801-1.475
					c-96.226-209.702-212.193-420.283-407.534-540.181c-0.547-0.337-1.065-0.713-1.558-1.128
					c-70.322-59.39-106.416-124.609-107.28-193.858c-0.889-71.558,37.07-143.73,109.81-208.828
					c85.351-139.424,192.002-260.815,317.021-360.835c51.089-38.403,110.181-53.071,171.25-42.632
					c76.558,13.081,149.58,64.258,200.337,140.415c30.337,43.716,69.116,83.428,115.151,117.861
					c88.735,33.179,152.993,88.359,191.011,164.043c33.697,67.07,48.042,150.523,43.848,255.073
					c28.042,181.533,103.379,339.243,223.94,468.804c111.606,100.723,151.665,196.987,122.354,294.155
					c12.554,46.216,6.079,96.743-18.379,142.729c-35.967,67.637-106.992,112.983-185.362,118.34
					C3191.923,3071.77,3163.784,3072.752,3136.21,3072.752z M2468.828,2704.441c156.948,248.813,409.312,363.164,750.02,339.902
					c69.644-4.761,132.7-44.941,164.561-104.858c21.968-41.304,27.422-86.509,15.361-127.285c-0.723-2.456-0.698-5.073,0.083-7.51
					c28.135-87.983-9.282-176.797-114.385-271.514c-0.278-0.249-0.542-0.508-0.796-0.781
					c-124.609-133.745-202.349-296.572-231.06-483.96c-0.127-0.816-0.171-1.641-0.137-2.461
					c8.765-211.528-61.104-337.363-219.888-396.006c-1.138-0.42-2.212-1.001-3.188-1.729
					c-48.901-36.338-90.112-78.423-122.485-125.078c-47.017-70.537-113.863-117.705-183.531-129.609
					c-53.965-9.229-106.274,3.794-151.304,37.642c-122.871,98.311-227.9,218.027-311.865,355.586
					c-0.659,1.079-1.47,2.056-2.417,2.896c-67.969,60.361-103.467,126.299-102.666,190.693
					c0.762,61.274,33.565,119.834,97.5,174.058C2253.017,2277.82,2371.127,2491.629,2468.828,2704.441z M2049.321,1780.13h0.049
					H2049.321z"/>
			</g>
			<g>
				<path style="fill:#371A45;" d="M2986.713,2950.628c-208.481,0.029-454.307-230.063-520.508-423.364
					c-0.132-0.381-0.244-0.762-0.337-1.152c-43.662-181.704-109.99-377.051-270.864-448.198c-0.864-0.381-1.68-0.859-2.436-1.421
					c-113.047-83.765-228.477-200.752-116.729-363.237c3.999-5.806,11.953-7.266,17.749-3.286c5.811,3.994,7.28,11.943,3.286,17.749
					c-43.237,62.866-52.266,121.099-27.602,178.032c20.62,47.598,64.277,95.088,137.368,149.399
					c169.917,76.021,238.901,277.28,283.911,464.409c32.534,94.517,109.326,198.389,205.527,277.974
					c99.912,82.651,207.476,129.243,295.313,127.524c25.903-0.479,50.273-12.524,66.855-33.057
					c74.136-91.782,208.003-157.759,292.456-143.979c35.776,5.825,60.767,25.225,72.271,56.104
					c2.461,6.606-0.903,13.955-7.51,16.416c-6.587,2.466-13.955-0.898-16.416-7.51c-8.228-22.09-25.874-35.488-52.451-39.814
					c-75.117-12.256-200.605,50.767-268.486,134.824c-21.338,26.421-52.778,41.924-86.25,42.544
					C2990.161,2950.613,2988.417,2950.628,2986.713,2950.628z"/>
			</g>
			<g>
				<path style="fill:#00B9F2;" d="M3004.194,1957.113c-2.998-56.722-19.246-118.571-37.486-158.286
					c-8.141-17.727-22.881-31.672-41.208-38.35c-75.201-27.401-211.332-27.89-236.669,36.817c0,0,49.656,99.902,31.429,282.097
					c-18.227,182.195,108.783,314.693,234.962,353.723c101.67,28.432,163.917,7.28,162.758-93.615
					C3059.255,2226.897,3019.939,2100.427,3004.194,1957.113z"/>
				<path style="fill:#371A45;" d="M3027.529,2447.161c-20.679,0-44.917-3.921-72.944-11.758
					c-131.299-40.61-254.722-176.011-236.69-356.245c17.935-179.302-30.698-279.814-31.191-280.811l-0.469-0.942l0.386-0.977
					c25.859-66.045,161.382-66.714,239.692-38.184c18.604,6.777,34.116,21.211,42.554,39.59
					c20.098,43.765,34.893,106.201,37.695,159.082c15.142,137.729,53.335,266.084,113.521,381.484l0.264,0.503l0.01,0.566
					c0.493,42.837-10.581,73.252-32.915,90.4C3072.421,2441.404,3052.583,2447.161,3027.529,2447.161z M2691.425,1797.219
					c5.01,10.879,48.335,111.089,31.196,282.407c-17.778,177.705,103.911,311.196,233.306,351.216
					c59.536,16.655,102.832,15.059,128.618-4.741c20.986-16.113,31.436-45.049,31.064-86.006
					c-60.317-115.82-98.599-244.585-113.779-382.725l-0.01-0.132c-2.769-52.349-17.397-114.141-37.271-157.422
					c-7.915-17.236-22.446-30.762-39.868-37.109C2847.646,1734.641,2716.372,1736.912,2691.425,1797.219z"/>
			</g>
			<g style="opacity:0.6;">
				<path style="fill:#FFFFFF;" d="M2688.824,1797.281c0,0,3.877,7.79,9.098,22.986c30.148-59.699,161.163-58.556,234.414-31.862
					c18.342,6.669,33.068,20.631,41.202,38.329c7.546,16.398,14.739,36.616,20.789,58.659c-7.027-32.769-16.989-63.43-27.604-86.566
					c-8.163-17.712-22.89-31.674-41.231-38.343C2850.285,1733.08,2714.16,1732.598,2688.824,1797.281z"/>
			</g>
			<g>
				<path style="fill:#371A45;" d="M3022.451,2456.629c-46.113,0.005-100.352-16.338-150.757-47.583
					c-123.037-76.274-182.993-212.422-160.439-364.277c6.05-82.671,6.772-175.835-33.296-240.781
					c-12.964-21.064-29.292-37.935-49.902-51.572c-60.449-30.62-110.142-70.65-147.72-118.994c-0.268-0.342-0.518-0.698-0.747-1.069
					c-50.625-81.065-37.544-121.533-25.239-138.447c14.902-20.479,42.583-28.003,74.014-20.132
					c25.61,6.392,48.433,22.5,64.248,45.356c66.592,95.996,150.059,167.568,248.081,212.715c6.401,2.949,9.199,10.527,6.25,16.934
					c-2.94,6.406-10.513,9.219-16.934,6.25c-102.217-47.075-189.151-121.553-258.384-221.362
					c-12.29-17.764-29.849-30.234-49.453-35.127c-21.006-5.264-38.628-1.372-47.183,10.391
					c-6.836,9.399-17.969,38.848,25.903,109.341c35.815,45.908,81.396,82.446,139.326,111.69c0.43,0.22,0.845,0.459,1.25,0.723
					c23.755,15.581,43.345,35.737,58.223,59.912c43.96,71.255,43.364,169.658,36.987,256.519c-0.024,0.322-0.059,0.64-0.107,0.957
					c-21.191,141.636,34.35,268.472,148.574,339.277c73.057,45.288,156.362,57.036,198.071,27.905
					c21.655-15.117,29.146-39.736,22.261-73.179c-1.426-6.904,3.022-13.652,9.927-15.073c6.899-1.436,13.652,3.018,15.073,9.927
					c8.877,43.11-2.715,78.364-32.646,99.258C3078.129,2449.939,3051.953,2456.629,3022.451,2456.629z"/>
			</g>
			<g>
				<path style="fill:#371A45;" d="M3004.184,1969.876c-6.743,0-12.378-5.278-12.739-12.09
					c-2.7-51.142-16.963-111.445-36.338-153.633c-6.763-14.731-19.15-26.279-33.979-31.684
					c-71.895-26.201-198.94-25.347-220.41,29.478c-2.568,6.563-9.966,9.81-16.538,7.231c-6.567-2.568-9.805-9.975-7.231-16.538
					c30.669-78.325,180.947-70.381,252.92-44.155c21.196,7.725,38.847,24.131,48.442,45.015
					c20.605,44.883,35.771,108.838,38.633,162.94c0.371,7.041-5.034,13.047-12.075,13.423
					C3004.638,1969.871,3004.409,1969.876,3004.184,1969.876z"/>
			</g>
			<g>
				
					<ellipse transform="matrix(0.9987 -0.0509 0.0509 0.9987 -114.6442 149.579)" style="fill:#371A45;" cx="2878.501" cy="2324.939" rx="29.687" ry="29.687"/>
				<path style="fill:#371A45;" d="M2878.447,2357c-4.571,0-9.214-0.981-13.614-3.057c-15.991-7.539-22.871-26.685-15.337-42.671
					l0,0c7.539-15.996,26.685-22.876,42.671-15.337c15.996,7.539,22.871,26.68,15.337,42.671
					C2902.041,2350.198,2890.483,2357,2878.447,2357z M2853.793,2313.294c-6.416,13.623-0.557,29.932,13.066,36.353
					c13.599,6.416,29.927,0.557,36.348-13.062c6.416-13.623,0.557-29.932-13.062-36.353
					C2876.533,2293.811,2860.214,2299.676,2853.793,2313.294L2853.793,2313.294z"/>
			</g>
			<g>
				
					<ellipse transform="matrix(0.2287 -0.9735 0.9735 0.2287 33.1307 4459.7588)" style="fill:#371A45;" cx="2831.008" cy="2208.971" rx="29.687" ry="29.687"/>
				<path style="fill:#371A45;" d="M2830.957,2241.033c-4.575,0-9.214-0.981-13.618-3.057c-7.749-3.652-13.608-10.103-16.504-18.164
					c-2.896-8.057-2.481-16.763,1.172-24.512c3.647-7.744,10.098-13.608,18.159-16.504c8.052-2.896,16.763-2.48,24.512,1.172
					s13.608,10.103,16.504,18.164c2.896,8.057,2.48,16.763-1.172,24.512C2854.55,2234.231,2842.993,2241.033,2830.957,2241.033z
					 M2831.025,2181.648c-3.11,0-6.235,0.537-9.253,1.621c-6.865,2.466-12.358,7.461-15.469,14.058v0.005
					c-6.421,13.618-0.562,29.922,13.062,36.348c13.643,6.431,29.932,0.557,36.348-13.062c3.11-6.602,3.467-14.014,0.996-20.879
					c-2.466-6.865-7.456-12.363-14.058-15.474C2838.955,2182.522,2835,2181.648,2831.025,2181.648z"/>
			</g>
			<g>
				
					<ellipse transform="matrix(0.9124 -0.4092 0.4092 0.9124 -607.8804 1334.7334)" style="fill:#371A45;" cx="2814.793" cy="2087.738" rx="29.687" ry="29.687"/>
				<path style="fill:#371A45;" d="M2814.775,2119.822c-4.663,0-9.307-1.035-13.652-3.081c-7.744-3.652-13.608-10.103-16.504-18.164
					c-2.896-8.057-2.48-16.763,1.172-24.512c3.653-7.744,10.103-13.604,18.164-16.499c8.057-2.9,16.763-2.476,24.512,1.172
					c7.744,3.647,13.604,10.098,16.499,18.159c2.896,8.057,2.48,16.763-1.172,24.512c-3.647,7.744-10.098,13.608-18.159,16.504
					C2822.094,2119.187,2818.427,2119.822,2814.775,2119.822z M2814.833,2060.427c-10.249,0-20.093,5.796-24.746,15.669
					c-3.11,6.597-3.467,14.009-0.996,20.874c2.466,6.865,7.461,12.363,14.058,15.474c6.611,3.11,14.019,3.462,20.879,0.996
					c6.865-2.466,12.358-7.461,15.469-14.058c3.11-6.602,3.467-14.014,0.996-20.879c-2.466-6.865-7.456-12.358-14.053-15.469
					C2822.685,2061.267,2818.73,2060.427,2814.833,2060.427z"/>
			</g>
			<g>
				
					<ellipse transform="matrix(0.9762 -0.2168 0.2168 0.9762 -354.5792 656.5544)" style="fill:#371A45;" cx="2815.016" cy="1944.304" rx="29.687" ry="29.687"/>
				<path style="fill:#371A45;" d="M2814.96,1976.365c-4.575,0-9.214-0.981-13.613-3.057c-7.749-3.652-13.608-10.103-16.504-18.164
					c-2.896-8.057-2.48-16.763,1.172-24.512c3.647-7.744,10.098-13.608,18.159-16.504c8.052-2.881,16.763-2.476,24.507,1.172
					c7.749,3.652,13.613,10.102,16.509,18.164c2.896,8.057,2.48,16.763-1.172,24.512
					C2838.554,1969.558,2826.997,1976.365,2814.96,1976.365z M2815.034,1916.98c-3.115,0-6.235,0.537-9.253,1.621
					c-6.865,2.466-12.358,7.461-15.469,14.058v0.005c-3.11,6.597-3.467,14.009-0.996,20.874c2.466,6.865,7.456,12.363,14.058,15.474
					c13.623,6.416,29.932,0.552,36.348-13.066c3.11-6.597,3.467-14.009,0.996-20.874c-2.466-6.865-7.461-12.363-14.058-15.474
					C2822.958,1917.854,2819.003,1916.98,2815.034,1916.98z"/>
			</g>
			<g>
				
					<ellipse transform="matrix(0.0538 -0.9986 0.9986 0.0538 800.713 4974.8735)" style="fill:#371A45;" cx="3025.449" cy="2064.925" rx="26.647" ry="18.646"/>
				<path style="fill:#371A45;" d="M3024.746,2093.928c-0.288,0-0.571-0.01-0.859-0.024c-5.771-0.313-10.967-3.726-14.634-9.619
					c-3.501-5.625-5.205-12.9-4.795-20.488c0.41-7.593,2.886-14.644,6.968-19.863c4.282-5.464,9.849-8.306,15.586-7.988
					c5.771,0.313,10.967,3.726,14.634,9.619c3.501,5.625,5.205,12.9,4.795,20.488c-0.41,7.593-2.886,14.644-6.968,19.863
					C3035.405,2091.106,3030.205,2093.928,3024.746,2093.928z M3026.171,2040.677c-3.974,0-7.861,2.178-11.001,6.191
					c-3.491,4.453-5.61,10.557-5.967,17.183l0,0c-0.356,6.626,1.094,12.92,4.082,17.725c2.822,4.536,6.68,7.158,10.854,7.383
					c4.131,0.166,8.291-1.963,11.587-6.177c3.491-4.453,5.61-10.557,5.967-17.183s-1.094-12.92-4.082-17.725
					c-2.822-4.536-6.68-7.158-10.854-7.383C3026.562,2040.681,3026.367,2040.677,3026.171,2040.677z"/>
			</g>
			<g>
				
					<ellipse transform="matrix(0.0538 -0.9986 0.9986 0.0538 867.6625 4868.3843)" style="fill:#371A45;" cx="3002.71" cy="1976.356" rx="31.439" ry="21.999"/>
				<path style="fill:#371A45;" d="M3001.845,2010.149c-0.317,0-0.635-0.01-0.952-0.024c-13.423-0.723-23.525-16.46-22.524-35.078
					l0,0c1.006-18.618,12.505-33.154,26.162-32.456c13.418,0.723,23.521,16.46,22.52,35.078
					C3026.074,1995.843,3014.863,2010.149,3001.845,2010.149z M2983.115,1975.301c-0.859,16.001,7.227,29.497,18.032,30.078
					c10.761,0.708,20.302-11.963,21.157-27.964c0.86-16.001-7.227-29.497-18.027-30.078
					C2993.335,1946.541,2983.979,1959.3,2983.115,1975.301L2983.115,1975.301z"/>
			</g>
			<g>
				
					<ellipse transform="matrix(0.9825 -0.1861 0.1861 0.9825 -351.709 608.8773)" style="fill:#371A45;" cx="3066.747" cy="2177.48" rx="18.646" ry="26.647"/>
				<path style="fill:#371A45;" d="M3069.204,2206.272c-4.727,0-9.448-2.114-13.56-6.123c-4.746-4.629-8.135-11.289-9.551-18.755
					c-2.979-15.723,3.862-30.273,15.249-32.432c11.416-2.134,23.081,8.882,26.06,24.604c1.416,7.471,0.693,14.907-2.026,20.947
					c-2.852,6.328-7.549,10.405-13.228,11.479C3071.171,2206.179,3070.185,2206.272,3069.204,2206.272z M3064.287,2153.44
					c-0.684,0-1.372,0.063-2.06,0.19c-8.814,1.67-13.955,13.73-11.465,26.875c1.235,6.519,4.146,12.285,8.198,16.24
					c3.833,3.73,8.227,5.371,12.304,4.58c4.111-0.776,7.583-3.892,9.78-8.765c2.324-5.156,2.925-11.587,1.689-18.105
					C3080.439,2162.327,3072.431,2153.44,3064.287,2153.44z"/>
			</g>
			<g>
				
					<ellipse transform="matrix(0.9149 -0.4036 0.4036 0.9149 -653.6696 1444.9446)" style="fill:#371A45;" cx="3100.761" cy="2273.061" rx="18.646" ry="26.647"/>
				<path style="fill:#371A45;" d="M3105.981,2300.969c-3.555,0-7.275-1.113-10.908-3.315c-5.664-3.433-10.479-9.15-13.545-16.104
					v-0.005c-6.455-14.639-3.081-30.356,7.515-35.039c10.605-4.683,24.492,3.428,30.952,18.071
					c6.455,14.639,3.086,30.356-7.52,35.034C3110.424,2300.52,3108.237,2300.969,3105.981,2300.969z M3085.874,2279.632
					c2.681,6.069,6.821,11.025,11.66,13.96c4.57,2.764,9.199,3.359,13.022,1.675c8.208-3.618,10.488-16.528,5.093-28.774
					c-5.405-12.241-16.475-19.263-24.688-15.64C3082.758,2254.475,3080.478,2267.385,3085.874,2279.632L3085.874,2279.632z"/>
			</g>
			<g>
				
					<ellipse transform="matrix(0.9411 -0.3381 0.3381 0.9411 -468.3099 1098.91)" style="fill:#371A45;" cx="2919.912" cy="1893.588" rx="34.849" ry="34.849"/>
				<path style="fill:#371A45;" d="M2919.853,1930.808c-5.313,0-10.698-1.138-15.811-3.55c-18.564-8.75-26.553-30.972-17.803-49.541
					v-0.005c8.75-18.555,30.987-26.548,49.541-17.798c18.564,8.755,26.553,30.977,17.803,49.541
					C2947.241,1922.913,2933.823,1930.808,2919.853,1930.808z M2890.537,1879.739c-7.632,16.201-0.664,35.591,15.527,43.223
					c7.852,3.701,16.66,4.116,24.829,1.187c8.159-2.93,14.692-8.867,18.394-16.714c7.632-16.196,0.664-35.586-15.532-43.223
					c-16.191-7.632-35.586-0.664-43.218,15.532V1879.739z"/>
			</g>
			<g>
				<path style="fill:#371A45;" d="M2878.5,2336.106c-2.866,0-5.732-1.094-7.91-3.286c-4.355-4.37-4.341-11.44,0.029-15.791
					c62.773-62.544,120.107-108.633,174.692-140.376c-38.843-24.8-145.625-86.812-229.326-77.813
					c-4.707,0.522-9.185-1.992-11.24-6.23c-2.056-4.243-1.23-9.321,2.07-12.686c3.887-3.97,96.328-97.368,193.701-109.468
					c6.147-0.742,11.699,3.584,12.461,9.707c0.762,6.123-3.584,11.699-9.707,12.461c-63.379,7.876-126.992,55.688-159.092,83.296
					c105.752,5.64,223.608,88.589,229.043,92.456c3.149,2.241,4.917,5.952,4.673,9.81c-0.244,3.862-2.471,7.319-5.879,9.141
					c-57.476,30.742-118.198,78.34-185.635,145.522C2884.204,2335.022,2881.352,2336.106,2878.5,2336.106z"/>
			</g>
			<g>
				<path style="fill:#371A45;" d="M3100.751,2284.231c-1.797,0-3.618-0.435-5.308-1.348c-1.528-0.83-154.141-82.476-262.451-62.92
					c-4.771,0.884-9.595-1.47-11.861-5.781c-2.271-4.307-1.494-9.59,1.929-13.057c64.917-65.786,121.382-110.884,176.187-140.557
					c-32.764-24.375-117.632-84.146-190.483-106.709c-5.889-1.826-9.189-8.081-7.363-13.975c1.826-5.889,8.066-9.185,13.975-7.363
					c96.079,29.756,206.978,117.407,211.65,121.128c2.998,2.383,4.565,6.138,4.15,9.946s-2.749,7.139-6.187,8.823
					c-51.255,25.117-103.774,64.287-163.716,122.285c110.459-3.34,238.872,65.322,244.805,68.535
					c5.425,2.935,7.441,9.712,4.507,15.137C3108.564,2282.107,3104.716,2284.231,3100.751,2284.231z"/>
			</g>
			<g>
				<path style="fill:#371A45;" d="M2684.917,2081.424c-13.032,0-26.167-3.037-38.438-9.199
					c-29.497-14.81-47.544-44.385-47.094-77.183l0,0c0.84-61.743,40.498-117.539,103.496-145.61
					c74.99-33.423,160.976-19.717,224.385,35.747c3.521,3.081,4.751,8.032,3.076,12.402c-1.655,4.326-5.806,7.173-10.43,7.173
					c-0.454,0.005-0.928-0.005-1.387-0.005c-52.656,0-85.151,43.242-119.541,89.014c-19.204,25.552-39.058,51.973-62.852,70.195
					C2721.04,2075.52,2703.081,2081.424,2684.917,2081.424z M2621.718,1995.344c-0.332,24.536,12.671,45.816,34.785,56.919
					c21.992,11.04,46.685,8.784,66.045-6.04c21.357-16.357,39.438-40.415,58.574-65.884c30.718-40.869,62.319-82.915,110.161-94.697
					c-62.798-42.031-132.236-36.782-179.312-15.811C2657.026,1894.319,2622.441,1942.415,2621.718,1995.344L2621.718,1995.344z"/>
			</g>
			<g>
				<path style="fill:#371A45;" d="M3142.085,2159.861c-21.299,0-41.665-9.6-56.328-27.651
					c-19.863-24.463-37.026-56.089-55.195-89.58c-32.188-59.326-65.474-120.669-114.937-142.378
					c-5.596-2.456-8.169-8.941-5.811-14.551c-0.029-0.166-0.058-0.332-0.083-0.498c-0.83-6.113,3.452-11.738,9.565-12.573
					c134.531-18.267,275.415,77.979,295.572,201.982c5.488,33.774-11.021,64.59-42.061,78.516
					C3162.705,2157.659,3152.29,2159.861,3142.085,2159.861z M2947.592,1892.766c43.516,30.303,73.481,85.542,102.603,139.214
					c17.661,32.549,34.341,63.296,52.905,86.147c18.35,22.593,44.092,21.997,60.566,14.619c16.348-7.334,33.789-26.021,29.15-54.551
					C3175.737,1973.142,3062.5,1889.895,2947.592,1892.766z"/>
			</g>
			<g>
				<path style="fill:#371A45;" d="M2824.926,2040.227c-1.933,0-3.887-0.503-5.669-1.553c-5.313-3.14-7.075-9.985-3.94-15.298
					c64.282-108.858,94.219-132.813,95.464-133.779c4.868-3.779,11.89-2.9,15.674,1.963c3.765,4.844,2.915,11.812-1.885,15.615
					c-0.645,0.527-29.219,24.6-90.014,127.559C2832.47,2038.264,2828.745,2040.227,2824.926,2040.227z"/>
			</g>
			<g>
				<path style="fill:#371A45;" d="M2960.087,1995.105c-4.536,0-8.799-2.783-10.469-7.285l-33.76-90.938
					c-2.148-5.781,0.801-12.212,6.582-14.355c5.757-2.158,12.207,0.791,14.355,6.582l33.76,90.938
					c2.148,5.781-0.801,12.212-6.582,14.355C2962.695,1994.881,2961.381,1995.105,2960.087,1995.105z"/>
			</g>
			<g>
				<path style="fill:#371A45;" d="M3098.21,2416.405c-19.465-26.754-35.446-55.493-49.015-85.072
					c-13.473-29.639-24.705-60.083-34.48-90.881c-19.574-61.625-33.14-124.687-44.314-187.963c-0.46-2.604,1.278-5.087,3.881-5.547
					c2.549-0.45,4.982,1.206,5.515,3.718l0.009,0.041c13.199,62.562,28.762,124.693,50.038,184.679
					c10.619,29.973,22.618,59.409,36.632,87.708c14.097,28.231,30.389,55.253,49.485,79.756l0.094,0.121
					c3.793,4.866,2.922,11.886-1.943,15.679c-4.867,3.792-11.887,2.922-15.68-1.945
					C3098.367,2416.615,3098.273,2416.49,3098.21,2416.405z"/>
			</g>
			<g>
				<path style="fill:#371A45;" d="M2904.119,2404.466c11.132-4.365,18.423-16.033,21.547-30.741
					c3.441-14.462,3.475-30.612,2.76-46.544c-1.779-32.098-7.574-64.516-14.011-96.712
					c-13.022-64.493-29.957-128.577-41.249-194.054c-0.449-2.605,1.299-5.082,3.905-5.531c2.551-0.44,4.979,1.228,5.5,3.745
					l0.009,0.042c13.256,64.452,32.183,127.766,47.421,192.386c7.539,32.344,14.539,64.98,17.528,98.843
					c1.261,16.951,1.98,34.239-1.578,52.161c-1.613,8.894-4.653,18.094-9.99,26.652c-5.237,8.56-13.528,16.141-23.197,20.352
					l-0.105,0.046c-5.657,2.463-12.24-0.126-14.703-5.782c-2.463-5.657,0.126-12.24,5.782-14.703
					C2903.849,2404.575,2904.005,2404.51,2904.119,2404.466z"/>
			</g>
			<g>
				<path style="fill:#371A45;" d="M2638.704,1505.634c-12.77-8.698-27.219-15.941-41.818-21.283
					c-14.659-5.379-29.938-8.671-44.998-9.16c-15.045-0.452-29.852,2.159-43.003,8.227c-13.268,5.836-24.688,15.238-34.479,26.139
					l-0.121,0.134c-4.716,5.25-12.795,5.683-18.044,0.967c-5.25-4.716-5.684-12.795-0.968-18.045
					c0.223-0.248,0.475-0.504,0.712-0.731c12.804-12.149,27.926-22.605,44.935-28.478c16.882-6.138,35.068-7.678,52.252-5.718
					c17.24,1.995,33.663,7.089,48.884,14.126c15.272,7.106,29.392,15.646,42.579,26.308c2.054,1.661,2.374,4.672,0.713,6.726
					c-1.573,1.947-4.36,2.335-6.396,0.957L2638.704,1505.634z"/>
			</g>
			<g>
				<path style="fill:#371A45;" d="M2421.577,2345.242c-0.449,0-0.898-0.029-1.357-0.083c-6.123-0.742-10.488-6.304-9.746-12.432
					c12.188-100.776-53.921-201.45-123.906-308.037c-94.761-144.316-192.749-293.545-95.84-454.204
					c3.188-5.283,10.059-6.987,15.332-3.799c5.283,3.188,6.982,10.054,3.799,15.332c-89.648,148.623,4.414,291.875,95.381,430.41
					c69.111,105.254,140.576,214.092,127.412,322.983C2431.967,2341.082,2427.148,2345.242,2421.577,2345.242z"/>
			</g>
			<g>
				<path style="fill:#371A45;" d="M2496.962,2580.213c-4.873,0-9.346-3.208-10.742-8.125
					c-25.371-89.521-8.149-187.769,10.083-291.782c23.628-134.805,48.066-274.18-25.415-396.812
					c-78.853-116.597-154.097-251.445-140.835-388.833c-38.662,92.505-1.787,186.67,39.815,292.905
					c46.587,118.97,99.394,253.814,32.402,399.4c-2.583,5.605-9.204,8.062-14.814,5.479c-5.605-2.578-8.057-9.214-5.479-14.814
					c63.018-136.958,14.253-261.484-32.91-381.914c-50.229-128.267-97.671-249.419-3.813-370.161
					c3.325-4.273,9.233-5.542,14.009-3.032c4.79,2.51,7.09,8.096,5.459,13.252c-47.617,150.718,36.387,304.702,124.844,435.454
					c0.112,0.166,0.22,0.337,0.322,0.513c77.949,129.834,52.769,273.491,28.418,412.422
					c-17.779,101.426-34.571,197.227-10.591,281.831c1.68,5.938-1.767,12.109-7.7,13.794
					C2498.994,2580.076,2497.968,2580.213,2496.962,2580.213z"/>
			</g>
			<g>
				<path style="fill:#371A45;" d="M2702.036,2828.26c-0.229,0-0.454-0.005-0.688-0.02c-6.157-0.371-10.845-5.669-10.469-11.826
					c4.507-74.277-30.664-152.578-71.392-243.242c-56.172-125.059-119.844-266.802-101.426-445.591
					c0.635-6.143,6.25-10.674,12.251-9.966c6.138,0.63,10.601,6.118,9.966,12.251c-17.798,172.827,44.565,311.66,99.585,434.15
					c41.934,93.359,78.149,173.984,73.311,253.755C2712.817,2823.694,2707.895,2828.26,2702.036,2828.26z"/>
			</g>
			<g>
				<path style="fill:#371A45;" d="M2886.098,2931.975c-0.405,0-0.815-0.024-1.23-0.068c-6.133-0.674-10.557-6.187-9.888-12.319
					c9.746-88.936-55.22-160.635-137.47-251.411c-57.227-63.154-122.085-134.736-173.037-226.04
					c-3.008-5.386-1.079-12.192,4.307-15.195c5.386-3.013,12.198-1.079,15.195,4.307c49.717,89.082,113.667,159.663,170.088,221.934
					c82.617,91.172,153.965,169.917,143.125,268.838C2896.557,2927.737,2891.718,2931.975,2886.098,2931.975z"/>
			</g>
			<g style="opacity:0.5;">
				<path style="fill:#371A45;" d="M2811.335,1743.05c0,0-121.483-83.015-169.658-141.856
					c-48.175-58.841-123.105-177.204-184.068-84.38c0,0-23.477,90.615,149.182,208.334c0,0,69.243,34.169,83.485,68.775
					C2690.277,1793.924,2731.573,1730.432,2811.335,1743.05z"/>
				<path style="fill:#371A45;" d="M2689.799,1799.006l-1.719-4.18c-13.735-33.374-81.655-67.207-82.339-67.549
					c-172.354-117.48-151.406-207.295-150.43-211.059l0.313-0.708c14.917-22.71,31.948-34.614,50.615-35.371
					c0.649-0.029,1.304-0.044,1.958-0.044c41.758,0,83.784,53.872,117.656,97.29c6.235,7.988,12.119,15.532,17.661,22.305
					c47.407,57.9,167.949,140.571,169.165,141.396l8.716,5.962l-10.43-1.65c-77.236-12.261-118.296,49.204-118.696,49.824
					L2689.799,1799.006z M2459.838,1517.756c-1.26,6.25-15.303,93.892,148.291,205.43c2.48,1.201,65.2,32.446,82.603,66.089
					c9.644-12.495,47.676-55.239,111.387-49.751c-27.773-19.526-121.563-87.095-162.28-136.826
					c-5.576-6.817-11.479-14.38-17.729-22.388c-33.73-43.237-75.723-97.075-115.674-95.425
					C2489.477,1485.574,2473.803,1496.634,2459.838,1517.756z"/>
			</g>
			<g style="opacity:0.3;">
				<path style="fill:#371A45;" d="M2045.123,2164.811c192.282,118.005,310.15,322.787,412.449,545.702
					c153.269,243.517,407.677,370.801,762.15,346.56c64.807-4.416,124.486-37.248,161.4-89.595
					c3.013-7.364,5.431-14.515,7.255-21.381c47.2-180.005-240.645-55.813-287.447-1.424
					c-46.802,54.389-119.776,47.017-119.776,47.017c-225.984-19.481-380.131-181.496-447.722-265.107
					c-67.591-83.611-197.094-372.76-197.094-372.76c-48.538-132.241-108.686-178.722-145.202-195.059
					c-36.159-16.177-69.312-38.481-96.494-67.295c-159.01-168.559-66.364-290.278-62.161-295.56
					C1917.091,1908.917,1903.348,2045.035,2045.123,2164.811z"/>
				<path style="fill:#371A45;" d="M3136.181,3062.361c-140.078,0-265.566-25.469-373.989-76.006
					c-125.659-58.569-228.823-150.952-306.631-274.575c-97.07-211.47-214.004-423.633-411.68-544.941l-0.293-0.21
					c-66.289-56.006-101.104-117.07-103.472-181.494c-2.373-64.468,28.994-130.488,90.703-190.928l3.521,3.179
					c-3.994,5.024-95.972,124.956,62.031,292.451c25.918,27.476,58.13,49.932,95.737,66.758
					c40.591,18.164,98.95,66.982,146.46,196.406c1.23,2.739,130.083,289.673,196.709,372.09
					c89.507,110.718,239.556,246.431,446.079,264.229c0.747,0.068,72.358,6.572,117.774-46.196
					c34.453-40.044,202.539-119.482,268.969-84.614c26.656,13.994,34.253,43.667,22.578,88.188
					c-1.87,7.026-4.346,14.316-7.358,21.68l-0.254,0.469c-37.422,53.062-96.899,86.084-163.184,90.596
					C3191.445,3061.389,3163.53,3062.361,3136.181,3062.361z M2046.518,2162.884c198.672,121.987,316.006,334.814,413.213,546.641
					c156.743,248.994,419.526,368.462,759.829,345.181c64.761-4.414,122.866-36.616,159.468-88.374
					c2.886-7.095,5.259-14.102,7.056-20.845c11.035-42.09,4.243-69.941-20.19-82.773c-64.771-33.984-229.341,44.204-263.159,83.506
					c-47.07,54.702-121.069,47.91-121.821,47.832c-208.154-17.939-359.243-154.541-449.326-265.972
					c-67.012-82.896-196.123-370.391-197.417-373.286c-49.472-134.766-111.455-179.297-144.004-193.862
					c-38.179-17.08-70.903-39.902-97.251-67.832c-126.377-133.97-95.112-238.667-73.95-279.849
					c-50.674,55.093-76.221,114.106-74.101,171.709C1947.177,2047.947,1981.376,2107.805,2046.518,2162.884z"/>
			</g>
			<g style="opacity:0.3;">
				<path style="fill:#371A45;" d="M3311.821,2764.195c-127.645,40.661-260.674,60.597-376.949-23.218
					c-40.075-28.887-69.413-70.192-85.565-116.879c-26.875-77.681-89.646-222.127-196.14-266.774
					c-148.135-62.106,35.798-437.264-54.556-515.019c-90.354-77.755-281.838-250.323-182.531-441.058c0,0-54.597,3.903-68.1,53.278
					c-13.503,49.374,0.177,149.323,0.177,149.323s39.373,114.797,106.443,234.546s75.334,202.85,75.334,202.85
					s-4.531,169.397-2.168,194.126c2.362,24.729,39.578,223.205,101.893,297.555c62.315,74.351,160.5,177.417,160.5,177.417
					s110.504,124.063,95.253,205.071c0,0,107.516,65.669,184.042-19.973C3145.979,2809.798,3311.821,2764.195,3311.821,2764.195z"/>
				<path style="fill:#371A45;" d="M2973.042,2941.609c-48.389,0-88.213-23.765-88.872-24.17l-1.396-0.854l0.303-1.611
					c14.863-78.95-93.599-201.821-94.692-203.052c-0.933-0.977-98.896-103.911-160.547-177.466
					c-64.131-76.528-100.586-279.453-102.437-298.862c-2.354-24.585,1.973-187.49,2.158-194.414
					c-0.073-0.527-9.019-83.765-75.034-201.626c-66.406-118.564-106.226-233.789-106.616-234.936
					c-0.669-4.551-13.696-101.445-0.22-150.718c13.789-50.415,69.658-54.98,70.22-55.019l4.243-0.303l-1.963,3.77
					c-101.235,194.429,104.517,371.499,181.968,438.159c41.304,35.542,26.973,129.78,11.802,229.551
					c-18.789,123.589-38.223,251.387,42.129,285.073c106.533,44.668,169.443,187.202,197.466,268.193
					c16.484,47.642,45.776,87.661,84.712,115.728c113.438,81.772,240.962,63.125,353.618,29.443
					c13.003-4.272,20.952-6.489,21.309-6.587l1.353,4.556c-7.065,2.246-14.194,4.458-21.382,6.606
					c-47.188,15.493-160.991,57.988-219.937,123.95C3040.635,2931.258,3004.97,2941.609,2973.042,2941.609z M2888.042,2914.187
					c12.754,7.144,109.99,57.617,179.639-20.332c43.584-48.774,116.552-84.805,171.279-106.782
					c-99.961,23.354-207.691,26.313-305.479-44.165c-39.731-28.643-69.614-69.458-86.421-118.032
					c-27.759-80.239-89.98-221.411-194.81-265.361c-83.77-35.122-64.053-164.78-44.99-290.176
					c14.966-98.433,29.106-191.406-10.2-225.229c-77.705-66.87-283.223-243.75-185.156-439.907
					c-12.939,2.183-50.938,11.846-61.636,50.947c-13.218,48.34,0.103,147.378,0.239,148.374
					c0.288,0.698,39.976,115.537,106.167,233.706c66.543,118.809,75.537,202.944,75.62,203.779
					c-0.034,1.992-4.487,169.834-2.168,194.136c1.841,19.263,37.949,220.601,101.353,296.255
					c61.553,73.442,159.414,176.27,160.396,177.3C2796.445,2713.826,2901.586,2832.986,2888.042,2914.187z"/>
			</g>
			<g style="opacity:0.3;">
				<path style="fill:#371A45;" d="M2294.523,1491.779c0,0-102.882,118.837-68.716,259.592s120.243,183.137,154.252,397.902
					c-142.68-190.294-242.199-375.459-199.061-543.672C2180.999,1605.601,2250.801,1511.985,2294.523,1491.779z"/>
				<path style="fill:#371A45;" d="M2383.901,2158.357l-5.742-7.661c-117.749-157.041-246.831-360.981-199.458-545.689l0.396-0.83
					c2.866-3.843,70.664-94.331,114.429-114.556l10.005-4.624l-7.212,8.335c-1.021,1.182-101.675,119.575-68.203,257.476
					c14.224,58.594,37.588,100.22,62.319,144.287c33.809,60.234,72.129,128.506,91.973,253.804L2383.901,2158.357z
					 M2183.183,1606.648c-45.757,179.6,77.568,378.442,192.959,533.413c-20.034-118.247-55.513-181.46-89.849-242.637
					c-24.902-44.365-48.418-86.265-62.798-145.493c-28.579-117.744,38.818-221.313,61.86-252.3
					C2244.194,1526.233,2187.67,1600.691,2183.183,1606.648z"/>
			</g>
			<g style="opacity:0.25;">
				<path style="fill:#FFFFFF;" d="M3287.3,2661.62c6.052,10.974,10.928,25.887,2.254,34.931
					c-7.197,7.504-19.407,6.086-29.485,3.526c-26.978-6.853-52.892-17.88-76.535-32.569c-15.52-9.642-30.431-21.259-39.697-37.007
					c-9.265-15.748-11.947-36.346-2.96-52.254C3180.713,2507.724,3269.693,2629.694,3287.3,2661.62z"/>
			</g>
			<g style="opacity:0.25;">
				<path style="fill:#FFFFFF;" d="M3144.508,2514.444c1.248,6.402,0.751,13.537-3.237,18.698
					c-3.931,5.088-10.657,7.398-17.087,7.413c-6.43,0.015-12.682-1.97-18.75-4.098c-8.913-3.125-17.874-6.704-25.121-12.76
					c-7.247-6.056-12.62-15.029-12.211-24.465c0.5-11.555,10.268-21.729,21.671-23.658c13.32-2.253,21.934,6.336,32.417,12.632
					C3132.965,2494.679,3141.943,2501.283,3144.508,2514.444z"/>
			</g>
		</g>
	</g>
</g>
</svg>
